<svg width="80" height="80" viewBox="0 0 80 80" fill="none" xmlns="http://www.w3.org/2000/svg">
<path d="M66.6667 33.3334C67.3184 30.4416 66.5134 27.0334 62.5 23.3334C55.9766 29.2384 57.8416 35.3784 60 38.3334C60 38.3334 59.7232 40 53.3334 40C46.9432 40 3.33334 40 3.33334 40C3.33334 40 0.278328 66.6667 30 66.6667C55.9883 66.6667 63.2883 46.6616 64.7134 41.54C65.3032 41.62 65.9651 41.6718 66.6667 41.6667C70.2451 41.6384 74.8832 39.715 76.6667 32.5267C71.9366 30.8883 68.8984 31.6299 66.6667 33.3334Z" fill="#03A9F4"/>
<path d="M3.6084 46.6666C4.83339 54.565 9.97173 66.6666 30 66.6666C50.3083 66.6666 59.2051 54.4501 62.8035 46.6666H3.6084Z" fill="#0288D1"/>
<path d="M33.02 66.5632C31.4866 66.0267 24.5666 64.7467 23.3333 55C16.3183 58.1051 10.1033 57.2917 7.36829 56.68C10.9716 62.0616 17.6516 66.6667 30 66.6667C31.0384 66.6667 32.04 66.6267 33.02 66.5632Z" fill="#81D4FA"/>
<path d="M30 50C29.116 50 28.268 50.3512 27.6429 50.9763C27.0178 51.6013 26.6666 52.4493 26.6666 53.3333C26.6666 54.2173 27.0178 55.0653 27.6429 55.6904C28.268 56.3155 29.116 56.6667 30 56.6667C30.884 56.6667 31.732 56.3155 32.357 55.6904C32.9821 55.0653 33.3333 54.2173 33.3333 53.3333C33.3333 52.4493 32.9821 51.6013 32.357 50.9763C31.732 50.3512 30.884 50 30 50Z" fill="white"/>
<path d="M24.8567 55.995C25.23 56.8366 24.89 57.9318 24.0067 58.1918C18.505 59.8134 13.7634 60.0283 10.1784 60.0283C9.10503 58.9966 8.18839 57.8966 7.41839 56.7566C11.7267 56.7566 18.6017 56.5566 22.6584 55.1467C23.5284 54.8432 24.4834 55.1499 24.8567 55.995ZM3.33337 45C3.33337 45 6.45839 45.2083 8.33337 43.3334C11.4584 46.1467 18.2334 45.1467 20 43.3334C21.7717 46.1467 31.5635 45.6251 33.3334 43.3334C35.4166 45.7299 44.375 46.2499 46.6667 43.3334C47.4651 45.7683 58.0318 46.4566 60 43.3334C61.7683 45.1467 68.4384 46.5632 72.1851 43.3334C73.1251 45.3134 76.6667 45 76.6667 45V46.6667H3.33337V45ZM28.3334 53.3334C28.3334 54.2534 29.08 55 30 55C30.92 55 31.6667 54.2534 31.6667 53.3334C31.6667 52.4134 30.92 51.6667 30 51.6667C29.08 51.6667 28.3334 52.4134 28.3334 53.3334Z" fill="#37474F"/>
<path d="M18.3333 40H10V31.6667H18.3333V40ZM35 31.6667H26.6667V40H35V31.6667ZM51.6667 31.6667H43.3333V40H51.6667V31.6667ZM26.6667 23.3334H18.3333V31.6667H26.6667V23.3334ZM43.3333 23.3334H35V31.6667H43.3333V23.3334Z" fill="#01579B"/>
<path d="M26.6667 40H18.3334V31.6667H26.6667V40ZM43.3334 31.6667H35V40H43.3334V31.6667ZM43.3334 15H35V23.3333H43.3334V15ZM35 23.3333H26.6667V31.6667H35V23.3333Z" fill="#0288D1"/>
</svg>
