<svg width="62" height="80" viewBox="0 0 62 80" fill="none" xmlns="http://www.w3.org/2000/svg">
<g clip-path="url(#clip0_302_430)">
<path d="M15.7529 80C24.1692 80 30.9998 74.0267 30.9998 66.6667V53.3334H15.7529C7.33658 53.3334 0.505981 59.3067 0.505981 66.6667C0.505981 74.0267 7.33658 80 15.7529 80Z" fill="#0ACF83"/>
<path d="M0.505981 40C0.505981 32.64 7.33658 26.6666 15.7529 26.6666H30.9998V53.3333H15.7529C7.33658 53.3333 0.505981 47.36 0.505981 40Z" fill="#A259FF"/>
<path d="M0.505859 13.3335C0.505859 5.97345 7.33646 0.00012207 15.7528 0.00012207H30.9997V26.6669H15.7528C7.33646 26.6669 0.505859 20.6935 0.505859 13.3335Z" fill="#F24E1E"/>
<path d="M31 0.00012207H46.247C54.6633 0.00012207 61.4941 5.97345 61.4941 13.3335C61.4941 20.6935 54.6633 26.6669 46.247 26.6669H31V0.00012207Z" fill="#FF7262"/>
<path d="M61.4941 40C61.4941 47.36 54.6633 53.3333 46.247 53.3333C37.8306 53.3333 31 47.36 31 40C31 32.64 37.8306 26.6666 46.247 26.6666C54.6633 26.6666 61.4941 32.64 61.4941 40Z" fill="#1ABCFE"/>
</g>
<defs>
<clipPath id="clip0_302_430">
<rect width="61" height="80" fill="white" transform="translate(0.5)"/>
</clipPath>
</defs>
</svg>
