<svg width="80" height="80" viewBox="0 0 80 80" fill="none" xmlns="http://www.w3.org/2000/svg">
<path d="M72 0H8C3.58173 0 0 3.58173 0 8V72C0 76.4182 3.58173 80 8 80H72C76.4182 80 80 76.4182 80 72V8C80 3.58173 76.4182 0 72 0Z" fill="#F05133"/>
<path d="M64.6347 37.7195L42.2789 15.3657C40.9927 14.0781 38.9047 14.0781 37.6168 15.3657L32.9749 20.0082L38.8631 25.8967C40.2319 25.4344 41.8008 25.7443 42.8914 26.8352C43.9877 27.9328 44.2954 29.5152 43.8216 30.8888L49.4967 36.564C50.8698 36.0909 52.4538 36.3967 53.5501 37.4949C55.0829 39.0274 55.0829 41.5103 53.5501 43.0431C52.0171 44.5763 49.5343 44.5763 48.0005 43.0431C46.8479 41.8896 46.5629 40.1962 47.1466 38.7762L41.8539 33.4832L41.8535 47.4114C42.2272 47.5963 42.5799 47.8434 42.8912 48.1535C44.4235 49.6856 44.4235 52.1682 42.8912 53.7029C41.3584 55.2351 38.8744 55.2351 37.3432 53.7029C35.8107 52.1683 35.8107 49.6856 37.3432 48.1535C37.7219 47.7754 38.1602 47.4891 38.6279 47.2973V33.2397C38.16 33.0487 37.7223 32.7647 37.3431 32.3835C36.1823 31.2237 35.9026 29.5199 36.4979 28.0943L30.6935 22.2887L15.3659 37.6163C14.0781 38.9048 14.0781 40.9928 15.3659 42.2805L37.7203 64.6344C39.0074 65.9219 41.0946 65.9219 42.3834 64.6344L64.6344 42.3861C65.9219 41.0979 65.9219 39.0093 64.6344 37.7215" fill="white"/>
</svg>
