<svg width="80" height="80" viewBox="0 0 80 80" fill="none" xmlns="http://www.w3.org/2000/svg">
<path d="M40.8333 75.2683L11.6666 58.0334V23.6333L40.8333 6.39832L70 23.6333V58.0334L40.8333 75.2683ZM15 56.1334L40.8333 71.3984L66.6666 56.1334V25.5333L40.8333 10.2683L15 25.5333V56.1334Z" fill="#FF4081"/>
<path d="M40.8333 15C44.0549 15 46.6667 12.3884 46.6667 9.16671C46.6667 5.94505 44.0549 3.33337 40.8333 3.33337C37.6117 3.33337 35 5.94505 35 9.16671C35 12.3884 37.6117 15 40.8333 15Z" fill="#FF4081"/>
<path d="M40.8333 78.3333C44.0549 78.3333 46.6667 75.7216 46.6667 72.5C46.6667 69.2784 44.0549 66.6666 40.8333 66.6666C37.6117 66.6666 35 69.2784 35 72.5C35 75.7216 37.6117 78.3333 40.8333 78.3333Z" fill="#FF4081"/>
<path d="M14.1667 61.6667C17.3884 61.6667 20 59.0549 20 55.8333C20 52.6117 17.3884 50 14.1667 50C10.9451 50 8.33337 52.6117 8.33337 55.8333C8.33337 59.0549 10.9451 61.6667 14.1667 61.6667Z" fill="#FF4081"/>
<path d="M67.5 61.6667C70.7216 61.6667 73.3333 59.0549 73.3333 55.8333C73.3333 52.6117 70.7216 50 67.5 50C64.2784 50 61.6666 52.6117 61.6666 55.8333C61.6666 59.0549 64.2784 61.6667 67.5 61.6667Z" fill="#FF4081"/>
<path d="M14.1667 31.6667C17.3884 31.6667 20 29.0549 20 25.8333C20 22.6117 17.3884 20 14.1667 20C10.9451 20 8.33337 22.6117 8.33337 25.8333C8.33337 29.0549 10.9451 31.6667 14.1667 31.6667Z" fill="#FF4081"/>
<path d="M67.5 31.6667C70.7216 31.6667 73.3333 29.0549 73.3333 25.8333C73.3333 22.6117 70.7216 20 67.5 20C64.2784 20 61.6666 22.6117 61.6666 25.8333C61.6666 29.0549 64.2784 31.6667 67.5 31.6667Z" fill="#FF4081"/>
<path d="M71.2 58.3333H10.4667L40.8334 4.96338L71.2 58.3333ZM16.2 55H65.4667L40.8334 11.7034L16.2 55Z" fill="#FF4081"/>
</svg>
