<svg width="80" height="80" viewBox="0 0 80 80" fill="none" xmlns="http://www.w3.org/2000/svg">
<path d="M7.2838 71.9994L0 0H80L72.7074 72.0051L39.9805 80L7.2838 71.9994Z" fill="#E34E26"/>
<path d="M40 5.88513V73.8843L66.4636 67.4198L72.6985 5.88513H40Z" fill="#EF662A"/>
<path d="M14.9027 14.7166L17.6037 41.4208H52.3354L51.1698 52.8746L39.987 55.539L28.8254 52.8785L28.0792 45.524H18.0207L19.459 59.7013L39.9846 64.725L60.5362 59.7013L63.2914 32.5912H26.7687L25.8517 23.5481H64.169H64.1996L65.0972 14.7166H14.9027Z" fill="white"/>
<path d="M40 14.7166H14.9027L17.6037 41.4208H40V32.5912H26.7687L25.8517 23.5481H40V14.7166Z" fill="#EBEBEB"/>
<path d="M39.9999 55.5352L39.987 55.539L28.8253 52.8785L28.0791 45.524H18.0206L19.4589 59.7013L39.9846 64.725L39.9999 64.7212V55.5352Z" fill="#EBEBEB"/>
</svg>
