<svg width="80" height="80" viewBox="0 0 80 80" fill="none" xmlns="http://www.w3.org/2000/svg">
<path d="M72 0H8C3.58173 0 0 3.58173 0 8V72C0 76.4182 3.58173 80 8 80H72C76.4182 80 80 76.4182 80 72V8C80 3.58173 76.4182 0 72 0Z" fill="#FDE635"/>
<path d="M11.7872 10.5856H68.528V66.9056H11.7872V10.5856Z" fill="#FDE635"/>
<path d="M22.3424 58.832L27.4352 55.7504C28.4176 57.4928 29.312 58.9664 31.456 58.9664C33.5104 58.9664 34.8064 58.1664 34.8064 55.0352V33.7712H41.0608V55.1232C41.0608 61.6 37.264 64.5488 31.7248 64.5488C29.7666 64.6547 27.8221 64.1651 26.1475 63.1443C24.4731 62.1237 23.147 60.6195 22.344 58.8304L22.3424 58.832ZM44.4592 58.16L49.552 55.2112C50.1182 56.36 50.9971 57.3256 52.0877 57.9973C53.1782 58.669 54.4362 59.0192 55.7168 59.008C58.3088 59.008 59.96 57.712 59.96 55.9248C59.96 53.7808 58.2624 53.0208 55.4032 51.7648L53.8448 51.1024C49.3328 49.1824 46.3392 46.7696 46.3392 41.6768C46.3392 36.9856 49.9136 33.4128 55.4976 33.4128C57.3069 33.2816 59.1149 33.6862 60.6957 34.576C62.2766 35.4658 63.5605 36.8013 64.3872 38.416L59.5168 41.544C59.1971 40.7424 58.6414 40.057 57.9234 39.5784C57.2053 39.0997 56.3589 38.8506 55.496 38.864C55.1198 38.8259 54.7398 38.8667 54.3803 38.9837C54.0208 39.1008 53.6898 39.2915 53.408 39.5437C53.1264 39.7958 52.9003 40.104 52.7443 40.4483C52.5885 40.7928 52.5061 41.1659 52.5024 41.544C52.5024 43.4208 53.664 44.1792 56.3424 45.3408L57.9056 46.0112C63.2224 48.2896 66.2144 50.6128 66.2144 55.8384C66.2144 61.4672 61.792 64.5504 55.8512 64.5504C50.0432 64.5504 46.2912 61.7808 44.4592 58.1616" fill="black"/>
</svg>
