<svg width="80" height="80" viewBox="0 0 80 80" fill="none" xmlns="http://www.w3.org/2000/svg">
<path d="M72 0H8C3.58173 0 0 3.58173 0 8V72C0 76.4182 3.58173 80 8 80H72C76.4182 80 80 76.4182 80 72V8C80 3.58173 76.4182 0 72 0Z" fill="black"/>
<path d="M23.1013 30.8152H35.1723V31.7694H24.2078V38.951H34.5184V39.9051H24.2078V47.7897H35.2981V48.744H23.1013V30.8152ZM36.2536 30.8152H37.5362L43.2197 38.6998L49.0288 30.8152L56.9302 20.8L43.949 39.5285L50.6382 48.744H49.3054L43.2197 40.3571L37.1086 48.744H35.801L42.5406 39.5285L36.2536 30.8152ZM51.116 31.7694V30.8152H64.872V31.7694H58.5347V48.744H57.4282V31.7694H51.116ZM8 30.8152H9.38314L28.4557 59.2L20.5739 48.744L9.1568 32.1712L9.10651 48.744H8V30.8152ZM64.7605 47.5017C64.5344 47.5017 64.3648 47.3277 64.3648 47.1024C64.3648 46.8773 64.5344 46.7032 64.7605 46.7032C64.9893 46.7032 65.156 46.8773 65.156 47.1024C65.156 47.3277 64.9893 47.5017 64.7605 47.5017ZM65.8477 46.4512H66.4398C66.4478 46.7701 66.6821 46.9845 67.0266 46.9845C67.4114 46.9845 67.6294 46.7541 67.6294 46.3225V43.5888H68.2322V46.3253C68.2322 47.1024 67.78 47.5501 67.0318 47.5501C66.3294 47.5501 65.8477 47.1158 65.8477 46.4512ZM69.0208 46.4163H69.6182C69.6693 46.7835 70.0299 47.0166 70.5494 47.0166C71.0338 47.0166 71.3891 46.7675 71.3891 46.4245C71.3891 46.1296 71.163 45.9526 70.649 45.8321L70.1485 45.7115C69.4459 45.548 69.1258 45.2104 69.1258 44.6421C69.1258 43.9534 69.6909 43.495 70.5386 43.495C71.3272 43.495 71.903 43.9534 71.9381 44.6046H71.3514C71.2949 44.2481 70.9827 44.0257 70.5306 44.0257C70.0542 44.0257 69.7366 44.2536 69.7366 44.6019C69.7366 44.8779 69.9411 45.0361 70.4472 45.1541L70.875 45.2585C71.6717 45.4435 72 45.7651 72 46.3467C72 47.0864 71.424 47.5501 70.5037 47.5501C69.6424 47.5501 69.0638 47.1078 69.0208 46.4163Z" fill="white"/>
</svg>
