<svg width="80" height="80" viewBox="0 0 80 80" fill="none" xmlns="http://www.w3.org/2000/svg">
<path d="M72 0H8C3.58173 0 0 3.51149 0 7.84314V72.1568C0 76.4885 3.58173 80 8 80H72C76.4182 80 80 76.4885 80 72.1568V7.84314C80 3.51149 76.4182 0 72 0Z" fill="#3BC0DD"/>
<path d="M41.5584 59.4354C41.0784 58.9851 40.5776 58.5333 40.0992 58.033C39.7168 58.4079 39.3584 58.7592 38.9792 59.109C34.2448 63.4384 29.3648 65.2408 26.472 63.4887C23.6736 61.8119 22.792 56.8581 23.912 50.6259C24.0315 49.9504 24.1748 49.2747 24.3424 48.5992C23.84 48.4424 23.3616 48.2981 22.8832 48.1287C16.9264 45.9719 13.0048 42.469 13.0048 38.9648C13.0048 35.5875 16.664 32.309 22.3792 30.2071C23.0192 29.9811 23.6944 29.757 24.3888 29.5562C24.2288 28.9051 24.1024 28.2792 23.9824 27.6738C22.7856 21.3475 23.6224 16.2933 26.4448 14.5914C29.3856 12.7891 34.2656 14.7169 39.1664 19.2455C39.4528 19.52 39.7408 19.8211 40.0512 20.1208C40.5056 19.6706 40.936 19.2205 41.3904 18.8205C46.0304 14.5851 50.6448 12.8142 53.4672 14.5161C56.408 16.2667 57.2704 21.6722 55.9552 28.3546C55.8832 28.7811 55.7952 29.1811 55.6928 29.6095C56.2912 29.7851 56.888 29.9843 57.4384 30.1851C63.2736 32.2871 67.0528 35.5655 67.0048 39.0181C67.0048 42.5459 62.9632 46.0251 56.7648 48.1773C56.4304 48.2776 56.096 48.4032 55.76 48.5019C55.904 49.0024 55.9984 49.5027 56.0944 50.0032C57.3376 56.4848 56.3808 61.7898 53.488 63.5419C52.7283 63.9904 51.8545 64.2187 50.968 64.2008C48.3168 64.1962 44.9504 62.4848 41.5584 59.4354ZM46.2464 50.2511C44.8726 52.3461 43.3628 54.3523 41.7264 56.2573C42.1808 56.7279 42.6352 57.1592 43.0896 57.5592C47.0352 61.1122 50.6704 62.4392 52.3696 61.4133C52.8884 60.9752 53.3124 60.4395 53.6164 59.8378C53.9204 59.2362 54.0982 58.5808 54.1392 57.9106C54.4844 55.4272 54.387 52.904 53.8512 50.4533C53.7792 50.0032 53.6912 49.553 53.5648 49.0776C51.1552 49.6306 48.71 50.0226 46.2464 50.2511ZM26.2048 51.0527C25.2256 56.3859 25.9424 60.3608 27.6448 61.3883C28.248 61.6354 28.899 61.7495 29.5521 61.7223C30.2052 61.6952 30.8443 61.5277 31.424 61.2314C33.679 60.3023 35.7328 58.9602 37.4752 57.2768C37.8336 56.9757 38.168 56.6259 38.528 56.2762C36.8555 54.3706 35.3057 52.3645 33.888 50.2698C31.4336 50.0688 28.9963 49.7019 26.5936 49.1719C26.4448 49.8259 26.3248 50.4503 26.2048 51.0527ZM40.1248 54.5554C41.1776 53.3287 42.2288 51.9781 43.2816 50.4768C42.2288 50.5271 41.1296 50.5522 40.0288 50.5522C38.928 50.5522 37.9008 50.5271 36.872 50.4768C37.9472 51.9514 39.024 53.3287 40.1232 54.5554H40.1248ZM35.1008 30.1319C34.192 31.5075 33.3072 32.9554 32.4704 34.4863C31.6336 35.9875 30.8704 37.5138 30.1744 39.0354C30.8928 40.5365 31.6576 42.0627 32.4944 43.6157C33.3312 45.1168 34.216 46.5962 35.1248 47.9938C36.7024 48.0941 38.3536 48.1506 40.0272 48.1506C41.7008 48.1506 43.3744 48.1005 44.9776 47.9765C45.8384 46.6008 46.7232 45.1232 47.5616 43.597C48.4 42.0706 49.1872 40.5192 49.8816 39.0181C49.1872 37.5419 48.3984 36.0157 47.5616 34.4879C46.7248 32.96 45.84 31.5075 44.9552 30.1333C43.3552 30.0079 41.7024 29.9327 40.0288 29.9327C38.3552 29.9327 36.704 30.0063 35.1008 30.1319ZM27.2096 46.8722C28.8504 47.2397 30.5112 47.5157 32.184 47.6989C31.6096 46.7483 31.0368 45.7962 30.4864 44.7954C29.96 43.8197 29.4336 42.844 28.9552 41.8683C28.2624 43.5687 27.688 45.2487 27.2096 46.8722ZM49.5696 44.7703C49.0192 45.7711 48.4688 46.7216 47.92 47.6487C49.6177 47.4402 51.3025 47.1395 52.9664 46.7483C52.4468 45.0591 51.8401 43.3968 51.1488 41.7679C50.6464 42.7687 50.12 43.7695 49.5696 44.7703ZM23.12 32.5083C18.2416 34.3106 15.3008 36.9349 15.3008 38.9898C15.3938 39.6509 15.619 40.2875 15.9636 40.8631C16.3081 41.4386 16.7654 41.9416 17.3088 42.3435C19.1753 43.8824 21.3158 45.0699 23.6224 45.8463C24.0528 46.0032 24.5072 46.1224 24.9616 46.273C25.6961 43.8115 26.5827 41.3962 27.616 39.04C26.5806 36.7243 25.7019 34.3442 24.9856 31.9154C24.3403 32.0848 23.7184 32.2824 23.12 32.5083ZM52.464 38.9898C53.5252 41.316 54.4337 43.7063 55.184 46.1459C55.496 46.0455 55.8064 45.9451 56.0928 45.8448C61.4256 43.9938 64.7328 41.1655 64.7504 38.9632C64.7504 36.9114 61.6896 34.2573 56.6912 32.4565C56.1888 32.2824 55.64 32.1067 55.0912 31.9311C54.3667 34.3354 53.4892 36.693 52.464 38.9898ZM49.5472 33.2346C50.0976 34.2354 50.624 35.2127 51.1008 36.1883C51.7652 34.5936 52.34 32.9645 52.8224 31.3083C51.198 30.9213 49.5534 30.6208 47.896 30.4079C48.4704 31.3319 49.0192 32.2589 49.5456 33.2346H49.5472ZM27.2336 31.2879C27.7136 32.8895 28.2864 34.5162 28.9552 36.1914C29.4352 35.2157 29.96 34.24 30.4864 33.2643C31.0128 32.2887 31.5616 31.3381 32.136 30.4111C30.4144 30.6322 28.7888 30.9319 27.2336 31.2879ZM42.8976 20.6527C42.4912 21.0275 42.0848 21.4275 41.6768 21.829C43.3374 23.7106 44.8638 25.7023 46.2448 27.7898C48.6785 28.0202 51.0921 28.4218 53.4672 28.9914C53.5632 28.6165 53.6272 28.24 53.7072 27.8651C54.8272 22.1098 54.1376 17.7051 52.32 16.6055C51.9211 16.3859 51.4684 16.2775 51.0112 16.2919C49.0576 16.2824 46.0592 17.7741 42.8976 20.6479V20.6527ZM27.592 16.6683C25.8944 17.6941 25.224 21.7976 26.2288 27.2032C26.3488 27.7789 26.4688 28.353 26.6112 28.9538C28.9894 28.405 31.4022 28.012 33.8336 27.7773C35.2195 25.6871 36.754 23.6952 38.4256 21.8165C38.1632 21.5405 37.8752 21.2911 37.6128 21.04C34.2848 17.9546 31.0848 16.3263 28.9952 16.3263C28.5041 16.3099 28.018 16.4283 27.592 16.6683ZM43.232 27.5781C42.2457 26.1791 41.1817 24.8343 40.0448 23.5498C38.9696 24.7749 37.8928 26.1271 36.8448 27.5781C37.8976 27.5279 38.9488 27.5027 40.0256 27.5027C41.1024 27.5027 42.1808 27.5232 43.2336 27.5781H43.232ZM35.2448 39.0903C35.2224 38.4471 35.3296 37.8059 35.5604 37.2035C35.7912 36.601 36.1409 36.0491 36.5897 35.5795C37.0384 35.1098 37.5772 34.7317 38.1753 34.4666C38.7736 34.2015 39.4192 34.0546 40.0752 34.0346C41.3988 34.0787 42.6508 34.6359 43.5563 35.5835C44.4617 36.5312 44.947 37.7923 44.9056 39.0903C44.9483 40.3891 44.4635 41.6517 43.5574 42.6005C42.6515 43.5493 41.3985 44.1069 40.0736 44.1506C39.4171 44.1306 38.7712 43.9837 38.1729 43.7183C37.5745 43.4528 37.0355 43.0741 36.5868 42.6039C36.1382 42.1338 35.7888 41.5813 35.5584 40.9783C35.3281 40.3754 35.2214 39.7336 35.2448 39.0903Z" fill="#E6E6E6"/>
</svg>
