<svg width="80" height="80" viewBox="0 0 80 80" fill="none" xmlns="http://www.w3.org/2000/svg">
<path d="M66.4448 43.26C63.8816 43.2734 61.6616 43.8886 59.8016 44.8067C59.1216 43.4486 58.4315 42.2534 58.3166 41.3651C58.1816 40.3286 58.0248 39.7086 58.1883 38.4734C58.3515 37.2384 59.0667 35.4886 59.0565 35.3568C59.0467 35.2251 58.8965 34.5969 57.4181 34.5851C55.94 34.5753 54.6749 34.8702 54.5267 35.26C54.3782 35.6502 54.0933 36.5286 53.9165 37.4451C53.6581 38.7851 50.9648 43.5667 49.4366 46.0667C48.9366 45.0902 48.5115 44.2302 48.4232 43.5502C48.2883 42.5134 48.1315 41.8934 48.2949 40.6584C48.4581 39.4235 49.1733 37.6734 49.1632 37.5419C49.1533 37.4102 49.0032 36.7819 47.5248 36.7702C46.0467 36.76 44.7816 37.0552 44.6333 37.4451C44.4848 37.8352 44.3248 38.7467 44.0232 39.6302C43.72 40.5118 40.1416 48.4867 39.2032 50.5552C38.7248 51.6086 38.3099 52.4552 38.0165 53.0318C38.0149 53.0302 38.0149 53.0286 38.0149 53.0286C38.0149 53.0286 37.9965 53.0667 37.9667 53.1318C37.7149 53.6235 37.5667 53.8952 37.5667 53.8952C37.5667 53.8952 37.5683 53.8984 37.5715 53.9051C37.3715 54.2667 37.1581 54.6019 37.0533 54.6019C36.98 54.6019 36.8315 53.64 37.0848 52.32C37.6181 49.5534 38.8965 45.24 38.8848 45.0902C38.8781 45.0134 39.1232 44.2619 38.0499 43.8686C37.0067 43.4867 36.6349 44.1235 36.54 44.1251C36.4483 44.1267 36.38 44.3502 36.38 44.3502C36.38 44.3502 37.5416 39.4984 34.1632 39.4984C32.0499 39.4984 29.1232 41.8102 27.6816 43.9051C26.7715 44.4019 24.8232 45.4651 22.7583 46.6C21.9649 47.0368 21.1549 47.4819 20.3866 47.9051C20.3349 47.8467 20.2816 47.7902 20.2283 47.7318C16.1299 43.3601 8.55657 40.2686 8.87657 34.3902C8.99324 32.2534 9.73657 26.6268 23.4316 19.8035C34.6499 14.2135 43.6315 15.7518 45.1832 19.1601C47.4 24.0318 40.3832 33.0835 28.7333 34.3902C24.2949 34.8886 21.9566 33.1667 21.3749 32.5267C20.7632 31.8518 20.6716 31.8219 20.4432 31.9486C20.0716 32.1552 20.3066 32.7502 20.4432 33.1051C20.7916 34.0102 22.2183 35.6152 24.6516 36.4152C26.7933 37.1184 32.0048 37.5035 38.3067 35.0651C45.3667 32.3352 50.8782 24.7385 49.2581 18.3901C47.6115 11.9335 36.9048 9.81013 26.7715 13.4101C20.7332 15.5535 14.2049 18.9168 9.50991 23.3068C3.92823 28.5267 3.03823 33.0718 3.40489 34.9702C4.70823 41.7168 14.0066 46.1102 17.7299 49.3651C17.5466 49.4667 17.3732 49.5619 17.2166 49.6486C15.3499 50.5718 8.26156 54.2819 6.48823 58.2001C4.47657 62.6451 6.80823 65.8352 8.35156 66.2651C13.1332 67.5952 18.0399 65.2019 20.6782 61.2686C23.3149 57.3368 22.9932 52.2152 21.7832 49.8784C21.7682 49.8502 21.7516 49.8219 21.7366 49.7918C22.2183 49.5067 22.7099 49.2169 23.1966 48.9302C24.1466 48.3718 25.0799 47.8518 25.8883 47.4118C25.4349 48.6518 25.1032 50.14 24.9316 52.2886C24.7282 54.8118 25.7632 58.0734 27.1165 59.3568C27.7133 59.9219 28.4299 59.9352 28.8832 59.9352C30.4581 59.9352 31.1765 58.6251 31.9683 57.0752C32.9381 55.1752 33.8 52.9619 33.8 52.9619C33.8 52.9619 32.72 58.9384 35.6632 58.9384C36.7365 58.9384 37.8149 57.5467 38.2965 56.8384C38.2981 56.8467 38.2981 56.8502 38.2981 56.8502C38.2981 56.8502 38.3267 56.8035 38.3816 56.7118C38.4933 56.5419 38.5565 56.4334 38.5565 56.4334C38.5565 56.4334 38.5581 56.4219 38.5616 56.4019C38.9933 55.6534 39.9499 53.9467 41.3832 51.1318C43.2365 47.4953 45.0133 42.9384 45.0133 42.9384C45.0133 42.9384 45.1782 44.0518 45.72 45.8952C46.0381 46.9784 46.715 48.1768 47.2499 49.3267C46.82 49.9235 46.5565 50.2651 46.5565 50.2651C46.5565 50.2651 46.5582 50.2718 46.5632 50.2835C46.22 50.7401 45.8349 51.2318 45.4315 51.7118C43.9683 53.4534 42.2267 55.4435 41.9933 56.0168C41.7181 56.6934 41.7832 57.1902 42.3149 57.5918C42.7032 57.8835 43.3933 57.9302 44.1149 57.8819C45.4299 57.7934 46.3533 57.4667 46.8099 57.2686C47.5216 57.0168 48.3499 56.6219 49.1267 56.0502C50.5616 54.9953 51.4267 53.4867 51.3432 51.4867C51.2966 50.3851 50.9467 49.2934 50.5016 48.2635C50.6315 48.0769 50.7616 47.8867 50.8933 47.6968C53.1549 44.3902 54.9099 40.7568 54.9099 40.7568C54.9099 40.7568 55.0749 41.8702 55.6165 43.7134C55.8899 44.6451 56.4315 45.6635 56.9181 46.66C54.7915 48.3886 53.4734 50.3968 53.0149 51.7134C52.1683 54.1502 52.8315 55.2534 54.0749 55.5051C54.6381 55.6184 55.435 55.3601 56.0334 55.1067C56.7782 54.8601 57.6734 54.4486 58.5099 53.8334C59.9448 52.7785 61.3248 51.3019 61.2416 49.3035C61.2032 48.3934 60.9566 47.4902 60.6216 46.6235C62.4248 45.8718 64.7581 45.4552 67.7315 45.8019C74.1099 46.5467 75.36 50.5286 75.1216 52.1952C74.8816 53.8619 73.5448 54.7785 73.0965 55.0552C72.6499 55.3318 72.5134 55.4286 72.5499 55.6334C72.6048 55.9318 72.8115 55.9219 73.1934 55.8568C73.7182 55.7686 76.5416 54.5019 76.6632 51.4251C76.8149 47.5153 73.0733 43.2251 66.4448 43.26ZM17.2832 59.8334C15.1699 62.1384 12.2199 63.0086 10.9532 62.2752C9.58657 61.4835 10.1282 58.0902 12.7199 55.6435C14.2999 54.1534 16.3399 52.78 17.6932 51.9352C18.0016 51.7502 18.4532 51.4785 19.0032 51.1486C19.0949 51.0968 19.1466 51.0686 19.1466 51.0686L19.1449 51.0651C19.2516 51.0019 19.3599 50.9369 19.4716 50.8686C20.4166 54.3502 19.5016 57.4152 17.2832 59.8334ZM32.6749 49.3718C31.94 51.1651 30.4 55.7552 29.4616 55.5086C28.6565 55.2968 28.1667 51.8086 29.3016 48.3752C29.8715 46.6467 31.0915 44.5819 31.8083 43.78C32.9616 42.4902 34.2315 42.0686 34.54 42.5918C34.9315 43.2584 33.1365 48.2467 32.6749 49.3718ZM45.3899 55.4384C45.0781 55.6019 44.7915 55.7035 44.66 55.6251C44.5616 55.5667 44.7883 55.3518 44.7883 55.3518C44.7883 55.3518 46.3782 53.64 47.0048 52.8619C47.3699 52.4086 47.7915 51.8702 48.2515 51.2702C48.2549 51.3302 48.2566 51.3902 48.2566 51.4486C48.2534 53.4984 46.2733 54.8819 45.3899 55.4384ZM55.1848 53.2051C54.9515 53.0401 54.9915 52.5051 55.7566 50.8368C56.0566 50.1819 56.7432 49.08 57.9333 48.0267C58.0715 48.46 58.155 48.8752 58.1534 49.2619C58.1382 51.8419 56.2981 52.8051 55.1848 53.2051Z" fill="#F06292"/>
</svg>
