<svg width="80" height="80" viewBox="0 0 80 80" fill="none" xmlns="http://www.w3.org/2000/svg">
<path d="M45.1255 73.9999C45.2305 73.7624 45.4955 73.5974 45.688 73.3974C48.6255 70.3174 51.588 67.2649 54.4855 64.1474C55.3922 63.3099 56.0927 62.2742 56.5327 61.1209C56.9725 59.9677 57.1395 58.7284 57.0205 57.4999C56.9295 56.9739 56.8102 56.4529 56.663 55.9399C55.873 56.6899 55.138 57.3724 54.398 58.0599C53.248 59.1299 52.103 60.2049 50.943 61.2624C50.259 61.9597 49.3795 62.4332 48.4207 62.6204C47.462 62.8074 46.469 62.6992 45.573 62.3099C44.666 61.9767 43.877 61.3844 43.3035 60.6067C42.7302 59.8289 42.398 58.8999 42.348 57.9349C42.3212 57.8107 42.2852 57.6887 42.2405 57.5699C41.358 58.3199 40.513 59.0099 39.6755 59.7199L22.268 74.4699C22.148 74.5724 22.018 74.6999 21.9055 74.7999H45.113L45.078 74.7774C44.953 74.6899 45.018 74.2299 45.1255 73.9999Z" fill="#FED85D"/>
<path d="M20.8421 74.0003C21.0485 73.7313 21.2977 73.4983 21.5796 73.3103L45.6695 52.8728C47.313 51.4778 48.9487 50.0753 50.577 48.6653C50.7782 48.5248 50.936 48.3308 51.032 48.1053C51.4215 46.408 51.4767 44.651 51.1945 42.9328C50.9445 43.1078 50.8095 43.1828 50.6945 43.3053C48.722 45.0703 46.7595 46.8503 44.777 48.6053C44.1205 49.2663 43.271 49.7018 42.351 49.8498C41.431 49.9975 40.4877 49.8498 39.657 49.4278C38.8095 49.0275 38.1002 48.3843 37.6195 47.58C37.1387 46.7755 36.908 45.846 36.957 44.9103C36.957 44.6978 36.957 44.4878 36.957 44.1003C36.5945 44.3653 36.3295 44.5428 36.082 44.7428C26.4405 52.4628 16.8004 60.1768 7.16212 67.8853C6.72712 68.2328 6.20712 69.0078 5.63712 68.2553C5.06712 67.5028 5.93462 67.1928 6.37212 66.8428C16.6471 58.5978 26.927 50.3603 37.212 42.1303C38.887 40.7878 38.997 40.2253 37.907 38.0928L37.257 38.7028C35.4745 40.3603 33.672 41.9953 31.917 43.6803C31.1972 44.3745 30.2955 44.8513 29.3162 45.055C28.337 45.2588 27.3202 45.1815 26.383 44.832C25.4457 44.4825 24.6266 43.875 24.02 43.0798C23.4133 42.2845 23.044 41.3338 22.9546 40.3378C22.6221 40.5878 22.3346 40.7703 22.0621 40.9828L6.81212 52.8028C6.54909 53.0605 6.24914 53.278 5.92212 53.4478C5.67529 53.5223 5.41027 53.509 5.17212 53.4103V74.8128H20.8121C20.754 74.684 20.7264 74.5438 20.7316 74.4028C20.7368 74.262 20.7746 74.124 20.8421 74.0003Z" fill="#FED85D"/>
<path d="M63.0922 6.05738C62.6672 7.44988 62.2547 8.84488 61.8822 10.2524C61.5382 11.247 61.5782 12.3344 61.9945 13.301C62.4107 14.2677 63.1732 15.0439 64.1322 15.4774C67.0657 17.0194 70.3715 17.712 73.6772 17.4774V6.29488C73.6405 6.0497 73.6542 5.79963 73.7172 5.55988C73.7872 5.42428 73.8755 5.29893 73.9797 5.18738H63.0822C63.2497 5.38238 63.1922 5.72488 63.0922 6.05738Z" fill="#E6A4DE"/>
<path d="M41.2045 30.08C41.1527 31.328 40.716 32.5298 39.9545 33.52C37.232 37.0343 34.1055 40.2163 30.6395 43.0001C30.0805 43.5173 29.372 43.8443 28.6157 43.9343C27.8595 44.024 27.094 43.872 26.4295 43.5C25.768 43.2173 25.2102 42.7368 24.8329 42.1245C24.4555 41.512 24.277 40.7978 24.322 40.08C24.402 39.1983 24.7681 38.3668 25.3645 37.7125C29.2402 34.0168 33.4397 30.6758 37.912 27.73C38.205 27.5003 38.5625 27.3685 38.9345 27.3533C39.3065 27.338 39.6737 27.44 39.9845 27.645C40.393 27.8985 40.723 28.2603 40.9385 28.69C41.1537 29.12 41.2457 29.601 41.2045 30.08Z" fill="#E6A4DE"/>
<path d="M38.2105 45.2323C38.1525 44.6798 38.2235 44.121 38.4178 43.6005C38.6123 43.08 38.9245 42.6118 39.3305 42.2323C43.1255 38.732 47.197 35.5443 51.5055 32.6998C51.6355 32.6173 51.7555 32.5348 51.898 32.4498C52.2745 32.178 52.7305 32.0393 53.1943 32.055C53.6583 32.071 54.1038 32.2405 54.4605 32.5373C54.806 32.8298 55.0503 33.2238 55.159 33.6633C55.2675 34.1025 55.2348 34.565 55.0655 34.9848C54.5205 36.8003 53.5145 38.4435 52.1455 39.7548C49.383 42.5048 46.5155 45.1648 43.6455 47.8048C43.211 48.2518 42.64 48.5415 42.0228 48.6283C41.4055 48.7153 40.7768 48.5943 40.2355 48.2848C39.667 47.9893 39.1828 47.5543 38.8285 47.0203C38.4745 46.4863 38.2618 45.871 38.2105 45.2323Z" fill="#E6A4DE"/>
<path d="M56.2497 46.8848C55.5497 47.6348 54.8297 48.3498 54.1572 49.1173C53.955 49.414 53.7872 49.7325 53.6572 50.0673C54.0272 50.1773 54.4597 50.4673 54.7597 50.3648C56.2872 49.8523 57.7772 49.2373 59.4547 48.5898C59.0897 49.4298 58.8147 50.2048 58.4272 50.9148C56.8307 53.5975 54.8315 56.0193 52.4997 58.0948C51.613 58.9498 50.6922 59.7673 49.7372 60.5473C49.2315 60.967 48.6232 61.2448 47.975 61.3523C47.3265 61.4598 46.6612 61.3933 46.0472 61.1593C45.433 60.9253 44.892 60.5325 44.4795 60.0208C44.067 59.509 43.798 58.897 43.6997 58.2473C43.6595 57.886 43.6915 57.5203 43.7937 57.1715C43.8957 56.8225 44.066 56.4975 44.2947 56.2148C47.6967 52.5205 51.5847 49.3053 55.8522 46.6573C55.904 46.6373 55.959 46.6263 56.0147 46.6248L56.2497 46.8848Z" fill="#E6A4DE"/>
<path d="M61.9847 36.9272L66.2622 17.9272L69.2622 18.6297L67.7147 23.3322C66.2697 27.7072 64.8072 32.0822 63.3972 36.4622C63.1222 37.2722 62.7622 37.4222 61.9847 36.9272Z" fill="#E6A4DE"/>
<path d="M57.1545 48.1023C57.607 46.3748 58.057 44.7773 58.437 43.1623C58.8075 41.596 59.5118 40.1285 60.502 38.8598C61.1095 38.0623 61.792 38.3798 62.4895 38.5523C63.1345 38.7098 63.297 39.1823 63.3245 39.8023C63.4263 41.5168 62.904 43.2103 61.8545 44.5698C60.605 46.1188 58.99 47.3328 57.1545 48.1023Z" fill="#E6A4DE"/>
<path d="M74.9827 7.23493C75.0202 6.67815 75.006 6.1191 74.9402 5.56493C74.8887 5.41013 74.7865 5.27718 74.6502 5.18743C74.5395 5.0972 74.4095 5.0331 74.2702 4.99993C74.1902 4.98493 74.0778 5.06743 73.9702 5.18493C73.8662 5.29648 73.7777 5.42183 73.7077 5.55743C73.6447 5.79718 73.6312 6.04725 73.6677 6.29243V17.4724C70.362 17.7071 67.0565 17.0144 64.1227 15.4724C63.1637 15.0389 62.4012 14.2627 61.985 13.2961C61.5687 12.3294 61.5287 11.2421 61.8727 10.2474C62.2452 8.83993 62.6577 7.44493 63.0828 6.05243C63.1828 5.71993 63.2402 5.37743 63.0828 5.18243C62.9953 5.0875 62.8742 5.03018 62.7453 5.02243C62.5802 5.0242 62.4202 5.08045 62.2902 5.18243C62.1035 5.29425 61.9545 5.45978 61.8627 5.65743C61.3627 7.15743 60.9228 8.67243 60.5402 10.2024C60.396 10.8054 60.357 11.4287 60.4252 12.0449C60.522 13.1599 60.9368 14.2236 61.62 15.1099C62.3035 15.9962 63.2267 16.6678 64.2802 17.0449C64.7527 17.2424 65.0303 17.4374 64.8978 18.0599C64.7152 18.8499 64.5377 19.6399 64.3577 20.4324C63.1327 25.8025 61.9145 31.175 60.7027 36.55C60.6687 36.7895 60.5633 37.0135 60.4002 37.1925C59.6018 37.8273 58.9308 38.6078 58.4228 39.4925C57.7757 40.66 57.3278 41.9275 57.0977 43.2425C57.0537 43.662 56.9022 44.063 56.6577 44.4068C56.4135 44.7505 56.0845 45.0255 55.7027 45.205C54.6602 45.7325 53.7028 46.415 52.5453 47.125C52.6225 45.733 52.6075 44.3375 52.5002 42.9475C52.4122 42.5198 52.431 42.0773 52.5548 41.6585C52.6787 41.24 52.9037 40.8583 53.2103 40.5475C54.735 39.037 55.822 37.1415 56.3553 35.0625C56.5148 34.5805 56.5583 34.068 56.483 33.566C56.4075 33.064 56.215 32.587 55.921 32.1733C55.627 31.7595 55.2397 31.4208 54.7905 31.1843C54.3413 30.948 53.8428 30.8205 53.3353 30.8125C52.5138 30.8033 51.707 31.0325 51.0127 31.4725C48.6203 33.0875 46.2927 34.8025 43.9827 36.5375C42.6152 37.5675 41.3278 38.7075 40.0028 39.7875C39.9458 39.726 39.8962 39.658 39.8553 39.585C39.83 39.4008 39.7805 39.221 39.7077 39.05C38.6003 37.34 39.3677 36.0975 40.5703 34.82C41.8232 33.5068 42.5152 31.7573 42.5002 29.9425C42.5392 29.0178 42.2495 28.109 41.6828 27.3775C41.381 27.006 41.0088 26.6978 40.5877 26.47C39.9897 26.1428 39.306 26.006 38.6283 26.0785C37.9502 26.1508 37.3107 26.4288 36.7952 26.875L36.0978 27.375C34.5053 28.515 32.8928 29.625 31.3603 30.845C29.1228 32.625 26.9378 34.48 24.7954 36.38C23.7954 37.2625 23.0654 38.4675 22.0279 39.2875C16.6179 43.56 11.1504 47.755 5.70286 51.9775C5.51556 52.0893 5.34331 52.2245 5.19036 52.38C5.17461 52.4028 5.16121 52.427 5.15036 52.4525C5.03536 52.72 4.93786 53.1625 5.07286 53.325C5.10596 53.3603 5.14596 53.3883 5.19036 53.4075C5.42851 53.5063 5.69356 53.5195 5.94036 53.445C6.26738 53.2753 6.56736 53.058 6.83036 52.8L22.0804 40.98C22.3529 40.7675 22.6404 40.575 22.9729 40.335C23.0623 41.3313 23.4316 42.2818 24.0383 43.077C24.6449 43.8723 25.464 44.4798 26.4013 44.8293C27.3385 45.1788 28.3553 45.256 29.3345 45.0523C30.3138 44.8485 31.2155 44.3718 31.9353 43.6775C33.6853 41.9925 35.4928 40.3575 37.2752 38.7L37.9253 38.09C39.0153 40.2225 38.9053 40.785 37.2303 42.1275C26.937 50.364 16.6512 58.6025 6.37286 66.8425C5.93536 67.1925 5.07036 67.51 5.63786 68.255C6.20536 69 6.72786 68.2325 7.16286 67.885C16.8062 60.1833 26.4428 52.4715 36.0728 44.75C36.3228 44.55 36.5853 44.3725 36.9478 44.1075C36.9478 44.495 36.9478 44.705 36.9478 44.9175C36.8988 45.8533 37.1295 46.7828 37.6102 47.5873C38.091 48.3915 38.8003 49.0348 39.6478 49.435C40.4785 49.857 41.4218 50.0048 42.3418 49.857C43.2618 49.7093 44.111 49.2735 44.7677 48.6125C46.7503 46.8625 48.7127 45.0775 50.6852 43.3125C50.8102 43.2 50.9552 43.115 51.1852 42.94C51.4675 44.6583 51.4123 46.4153 51.0228 48.1125C50.9268 48.338 50.769 48.5323 50.5678 48.6725C48.9378 50.0808 47.302 51.4833 45.6602 52.88L21.5804 73.32C21.2984 73.508 21.0493 73.7413 20.8429 74.01C20.777 74.1325 20.74 74.2685 20.7348 74.4078C20.7296 74.5468 20.7563 74.6853 20.8129 74.8125C20.9258 74.897 21.0564 74.9553 21.1949 74.9825C21.3334 75.0098 21.4763 75.0055 21.6129 74.97C21.7207 74.9385 21.8199 74.883 21.9029 74.8075C22.0279 74.7075 22.1529 74.58 22.2654 74.4775L39.6727 59.7275C40.5103 59.0175 41.3552 58.3175 42.2378 57.5775C42.2825 57.6963 42.3185 57.8183 42.3453 57.9425C42.3953 58.9075 42.7275 59.8365 43.301 60.6143C43.8742 61.392 44.6635 61.9843 45.5703 62.3175C46.4663 62.7068 47.4593 62.815 48.418 62.6278C49.3768 62.4408 50.2563 61.9673 50.9403 61.27C52.1003 60.2125 53.2453 59.1375 54.3953 58.0675C55.1453 57.38 55.8703 56.69 56.6603 55.9475C56.8075 56.4605 56.927 56.9813 57.0177 57.5075C57.1328 58.732 56.9637 59.9663 56.5242 61.115C56.0845 62.2635 55.386 63.2953 54.4827 64.13C51.5853 67.25 48.6227 70.3025 45.6852 73.38C45.4928 73.58 45.2278 73.745 45.1228 73.9825C45.0178 74.22 44.9503 74.685 45.0753 74.785L45.1103 74.8075C45.3725 74.935 45.6672 74.9795 45.9552 74.935C46.036 74.9183 46.108 74.873 46.1578 74.8075C46.2278 74.735 46.2952 74.645 46.3628 74.5775C48.7427 72.1175 51.1353 69.67 53.4977 67.1925C54.4515 66.2263 55.348 65.2053 56.1828 64.135C57.2715 62.9298 57.9933 61.4388 58.2635 59.8373C58.5338 58.2358 58.341 56.5905 57.7077 55.095C57.6397 54.7615 57.7063 54.4145 57.8927 54.13C58.0553 53.85 58.2352 53.5775 58.4202 53.3075C59.0122 52.5388 59.5052 51.699 59.8877 50.8075C60.627 48.6195 61.7617 46.5858 63.2352 44.8075C63.9127 43.9485 64.379 42.9423 64.596 41.8703C64.8132 40.798 64.7752 39.6898 64.4852 38.635C64.383 38.2338 64.383 37.8135 64.4852 37.4125C65.7502 33.495 67.0527 29.59 68.3427 25.6825C68.9212 23.9324 69.4962 22.1874 70.0677 20.4474L70.6003 18.8299C71.7353 18.8299 72.8052 18.8074 73.8702 18.8299C74.7552 18.8549 75.0252 18.4399 75.0152 17.5799C74.9627 14.1299 74.9827 10.6824 74.9827 7.23493ZM30.6403 43C30.0815 43.5173 29.373 43.8445 28.6168 43.9343C27.8603 44.024 27.095 43.872 26.4303 43.5C25.769 43.2173 25.2113 42.7368 24.8338 42.1245C24.4564 41.512 24.2779 40.7978 24.3229 40.08C24.4029 39.1983 24.769 38.3668 25.3653 37.7125C29.2413 34.0168 33.4405 30.6758 37.9128 27.73C38.157 27.5573 38.4348 27.438 38.7278 27.38C38.9245 27.3438 39.1263 27.3438 39.3228 27.38C39.5585 27.4258 39.7832 27.5158 39.9852 27.645C40.3942 27.8988 40.7245 28.261 40.94 28.6913C41.1553 29.1215 41.2472 29.603 41.2052 30.0825C41.1535 31.3305 40.717 32.5323 39.9552 33.5225C37.2327 37.036 34.1063 40.217 30.6403 43ZM43.6403 47.8225C43.2057 48.2693 42.6347 48.559 42.0175 48.646C41.4002 48.733 40.7715 48.612 40.2303 48.3025C39.6608 48.0063 39.176 47.57 38.8218 47.0345C38.4673 46.4993 38.2552 45.8825 38.2052 45.2425C38.1473 44.6898 38.2183 44.1313 38.4125 43.6108C38.607 43.0903 38.9195 42.6218 39.3252 42.2425C43.1203 38.7423 47.192 35.5543 51.5002 32.71C51.6302 32.6275 51.7502 32.545 51.8927 32.46C52.2692 32.1883 52.7253 32.0495 53.189 32.0653C53.653 32.081 54.0985 32.2508 54.4553 32.5475C54.8008 32.84 55.045 33.234 55.1538 33.6733C55.2623 34.1128 55.2297 34.5753 55.0602 34.995C54.5152 36.8105 53.5093 38.4538 52.1403 39.765C49.3828 42.52 46.5152 45.1725 43.6452 47.8125L43.6403 47.8225ZM58.4177 50.925C56.8237 53.6035 54.828 56.0218 52.5002 58.095C51.6138 58.95 50.6927 59.7675 49.7378 60.5475C49.232 60.967 48.624 61.245 47.9757 61.3525C47.3273 61.46 46.662 61.3935 46.0478 61.1595C45.4338 60.9255 44.8928 60.5325 44.4803 60.021C44.0678 59.5093 43.7988 58.8973 43.7003 58.2475C43.6603 57.8863 43.6922 57.5205 43.7943 57.1715C43.8965 56.8228 44.0667 56.4975 44.2952 56.215C47.6975 52.5205 51.5855 49.3053 55.8528 46.6575C55.9048 46.6373 55.9597 46.6263 56.0152 46.625L56.2652 46.875C55.5653 47.625 54.8452 48.34 54.1727 49.1075C53.9707 49.404 53.803 49.7228 53.6728 50.0575C54.0428 50.1675 54.4753 50.4575 54.7753 50.355C55.9828 49.95 57.1702 49.48 58.4427 48.98L59.4702 48.58C59.0852 49.43 58.8102 50.205 58.4228 50.915L58.4177 50.925ZM61.8503 44.5875C60.9178 45.7745 59.749 46.7553 58.4177 47.4675C58.0062 47.6975 57.5837 47.9125 57.1502 48.1125C57.5952 46.41 58.0402 44.8325 58.4177 43.2375L58.4328 43.1725C58.8032 41.6063 59.5075 40.1385 60.4977 38.87C61.1053 38.0725 61.7878 38.39 62.4852 38.5625C63.1302 38.72 63.2927 39.1925 63.3202 39.8125C63.4227 41.5255 62.9025 43.2178 61.8552 44.5775L61.8503 44.5875ZM67.7002 23.3374C66.2552 27.7125 64.7927 32.0875 63.3827 36.4675C63.1177 37.29 62.7578 37.44 61.9803 36.945L65.6877 20.4624L66.2577 17.9324L69.2578 18.6349C69.0527 19.2524 68.8552 19.8599 68.6552 20.4624L67.7002 23.3374Z" fill="black"/>
</svg>
