<svg width="80" height="80" viewBox="0 0 80 80" fill="none" xmlns="http://www.w3.org/2000/svg">
<path d="M72 0H8C3.58173 0 0 3.58173 0 8V72C0 76.4182 3.58173 80 8 80H72C76.4182 80 80 76.4182 80 72V8C80 3.58173 76.4182 0 72 0Z" fill="white"/>
<path fill-rule="evenodd" clip-rule="evenodd" d="M8 0C3.58173 0 0 3.58173 0 8V72C0 76.4182 3.58173 80 8 80H72C76.4182 80 80 76.4182 80 72V8C80 3.58173 76.4182 0 72 0H8ZM55.0936 34.1941C55.7688 34.1962 56.5358 34.2318 57.113 34.2944C59.4629 34.5486 61.293 35.5626 62.8499 37.4722C63.6253 38.4234 63.8906 38.8397 63.8339 39.0176C63.7976 39.1325 63.2656 39.5136 61.5742 40.6363C59.9128 41.7392 59.3776 42.0696 59.2533 42.0696C59.1272 42.0696 58.8648 41.7995 58.4862 41.2806C57.7573 40.2818 57.0131 39.8258 55.8627 39.6738C54.6254 39.5099 53.5157 39.9 52.9722 40.6899C52.5075 41.3648 52.4374 42.4509 52.8067 43.24C53.2344 44.1541 54.0088 44.6594 56.9765 45.9608C60.3992 47.4614 62.1336 48.4888 63.3968 49.7635C64.7571 51.1365 65.4464 52.7216 65.6581 54.9637C65.7614 56.0565 65.6352 57.3517 65.3224 58.4048C64.5555 60.9862 62.4859 62.8766 59.4523 63.7662C58.6138 64.0122 57.8334 64.159 57.0616 64.2155C55.8835 64.3022 54.1968 64.2544 53.1818 64.1066C50.6134 63.7326 47.7144 62.2381 46.2686 60.5435C45.559 59.7117 44.6531 58.3429 44.6531 58.1019C44.6531 57.9858 44.7107 57.9198 44.9389 57.7747C45.6155 57.3448 49.4931 55.1282 49.5683 55.1282C49.6138 55.1282 49.8163 55.3669 50.0182 55.6586C50.4757 56.319 51.6005 57.4542 52.1723 57.8331C52.6395 58.1424 53.2368 58.3909 53.9459 58.5701C54.3522 58.6714 54.5672 58.6894 55.4534 58.6894C56.3589 58.6891 56.5446 58.6739 56.9498 58.565C58.0213 58.2766 58.8576 57.68 59.212 56.951C59.3674 56.6362 59.3704 56.5968 59.3704 55.833V55.041L59.18 54.6632C58.7187 53.7475 57.7248 53.1192 54.5824 51.7581C53.139 51.1328 51.3712 50.2512 50.681 49.8126C49.1059 48.8117 48.0142 47.6674 47.2978 46.2666C46.5851 44.8736 46.4789 44.355 46.4771 42.2605C46.4754 40.6208 46.4726 40.641 46.8122 39.5944C47.1202 38.6448 47.7507 37.5838 48.4467 36.8442C49.8358 35.3675 51.8654 34.4186 54.0382 34.2298C54.3162 34.2034 54.6886 34.1928 55.0936 34.1941ZM36.3962 34.5179C40.5811 34.52 42.9806 34.5346 43.0192 34.5587C43.0917 34.6037 43.1008 34.9678 43.1008 37.2922V39.9738L34.749 40.0042V51.8605C34.749 58.3816 34.7358 63.7557 34.7176 63.8032C34.6882 63.8829 34.367 63.8891 31.6499 63.8891H28.6152L28.5838 63.7664C28.5635 63.699 28.5488 58.325 28.5483 51.8237L28.5474 40.0035L20.1957 39.9734V37.3237C20.1957 35.2219 20.2102 34.6592 20.2661 34.6032C20.3235 34.544 22.4547 34.5286 31.6374 34.5197C33.408 34.5179 35.0011 34.5171 36.3962 34.5179Z" fill="#0288D1"/>
</svg>
