<svg width="414" height="361" viewBox="0 0 414 361" fill="none" xmlns="http://www.w3.org/2000/svg">
<g clip-path="url(#clip0_302_251)">
<path d="M373.278 187.87C373.332 232.54 356.085 275.491 325.163 307.695C323.299 309.649 321.384 311.556 319.419 313.416C316.426 316.267 313.332 319.007 310.137 321.637C280.252 346.286 242.943 360.137 204.23 360.956C202.94 360.985 201.645 361 200.346 361C169.471 361 130.638 344.491 95.3973 321.637C92.4817 319.746 89.592 317.811 86.7283 315.833C85.3897 314.917 84.0576 313.988 82.7321 313.046C69.1402 303.438 56.2388 292.886 44.123 281.469C36.1903 274.016 28.7516 266.053 21.8541 257.631C-5.2238 224.193 -11.1962 194.064 27.408 187.87C31.9786 187.139 36.4145 186.358 40.7157 185.526C46.9462 184.328 52.9089 183.033 58.6038 181.643C66.275 179.776 73.4822 177.752 80.2253 175.571C82.4936 174.84 84.7099 174.094 86.8743 173.334C118.873 162.083 140.29 147.41 154.869 131.491C157.341 128.796 159.621 126.069 161.707 123.309C164.9 119.108 167.8 114.693 170.386 110.094C173.956 103.703 176.955 97.0094 179.347 90.0902L179.479 89.7101C191.078 56.2137 187.549 25.144 200.346 14.7452C255.047 -29.7104 323.148 33.5985 355.113 108.256C356.724 112.018 358.239 115.803 359.659 119.61C360.297 121.311 360.912 123.015 361.504 124.722C363.062 129.171 364.475 133.631 365.744 138.103C366.23 139.809 366.694 141.512 367.136 143.215C367.608 145.052 368.061 146.884 368.479 148.716C371.589 162.131 373.278 175.361 373.278 187.87Z" fill="#1D2638"/>
<path d="M204.23 360.956C202.94 360.985 201.645 361 200.346 361C169.471 361 130.638 344.491 95.3973 321.637C92.4817 319.746 89.592 317.811 86.7283 315.833L89.2399 300.532L165.275 290.426L203.437 319.639L204.23 360.956Z" fill="#2F2E41"/>
<path d="M207.89 87.7367H197.055C196.72 87.7368 196.398 87.8703 196.16 88.1079C195.923 88.3454 195.79 88.6676 195.79 89.0035V99.8555C195.79 100.022 195.823 100.186 195.886 100.339C195.95 100.493 196.043 100.632 196.161 100.749C196.279 100.867 196.418 100.959 196.571 101.023C196.725 101.086 196.889 101.118 197.055 101.118H207.89C208.225 101.118 208.546 100.985 208.784 100.748C209.021 100.512 209.155 100.191 209.156 99.8555V89.0035C209.155 88.6678 209.021 88.3462 208.784 88.1088C208.547 87.8714 208.226 87.7376 207.89 87.7367Z" fill="white"/>
<path d="M207.89 106.229H197.055C196.72 106.23 196.398 106.363 196.16 106.601C195.923 106.838 195.79 107.16 195.79 107.496V118.348C195.79 118.514 195.823 118.679 195.886 118.832C195.95 118.986 196.043 119.125 196.161 119.242C196.279 119.359 196.418 119.452 196.571 119.515C196.725 119.579 196.889 119.611 197.055 119.61H207.89C208.225 119.611 208.546 119.478 208.784 119.241C209.021 119.005 209.155 118.684 209.156 118.348V107.496C209.155 107.161 209.021 106.839 208.784 106.602C208.547 106.364 208.226 106.23 207.89 106.229Z" fill="#E6E6E6"/>
<path d="M207.89 124.722H197.055C196.72 124.722 196.398 124.856 196.16 125.093C195.923 125.331 195.79 125.653 195.79 125.989V136.836C195.789 137.003 195.822 137.168 195.885 137.321C195.949 137.475 196.042 137.615 196.16 137.733C196.277 137.85 196.417 137.944 196.57 138.007C196.724 138.071 196.889 138.103 197.055 138.103H207.89C208.226 138.103 208.548 137.969 208.785 137.732C209.022 137.494 209.156 137.172 209.156 136.836V125.989C209.155 125.653 209.021 125.332 208.784 125.094C208.547 124.857 208.226 124.723 207.89 124.722Z" fill="#E6E6E6"/>
<path d="M209.136 144.258C209.082 143.966 208.928 143.702 208.701 143.512C208.473 143.321 208.187 143.216 207.89 143.215H197.055C196.72 143.215 196.398 143.348 196.16 143.586C195.923 143.824 195.79 144.146 195.79 144.482V155.329C195.789 155.495 195.822 155.66 195.885 155.814C195.949 155.968 196.042 156.108 196.16 156.225C196.277 156.343 196.417 156.436 196.57 156.5C196.724 156.564 196.889 156.596 197.055 156.596H207.89C208.226 156.596 208.548 156.462 208.785 156.225C209.022 155.987 209.156 155.665 209.156 155.329V144.482C209.157 144.407 209.15 144.331 209.136 144.258Z" fill="#E6E6E6"/>
<path d="M208.382 161.805C208.226 161.74 208.059 161.707 207.89 161.708H197.055C196.889 161.707 196.724 161.74 196.571 161.803C196.417 161.867 196.277 161.96 196.16 162.078C196.042 162.196 195.949 162.335 195.885 162.489C195.822 162.643 195.789 162.808 195.79 162.974V173.822C195.789 173.988 195.821 174.153 195.885 174.307C195.948 174.461 196.041 174.601 196.159 174.719C196.276 174.837 196.416 174.93 196.57 174.994C196.724 175.057 196.889 175.089 197.055 175.089H207.89C208.226 175.088 208.548 174.955 208.785 174.717C209.022 174.48 209.156 174.158 209.156 173.822V162.974C209.155 162.725 209.082 162.481 208.944 162.274C208.807 162.066 208.611 161.903 208.382 161.805Z" fill="#E6E6E6"/>
<path d="M230.651 87.7367H219.816C219.48 87.7368 219.158 87.8703 218.921 88.1079C218.684 88.3454 218.55 88.6676 218.55 89.0035V99.8555C218.55 100.022 218.583 100.186 218.647 100.339C218.711 100.493 218.804 100.632 218.921 100.749C219.039 100.867 219.178 100.959 219.332 101.023C219.485 101.086 219.65 101.118 219.816 101.118H230.651C230.986 101.118 231.307 100.985 231.544 100.748C231.781 100.512 231.915 100.191 231.916 99.8555V89.0035C231.915 88.6678 231.782 88.3462 231.545 88.1088C231.307 87.8714 230.986 87.7376 230.651 87.7367Z" fill="#CEB995"/>
<path d="M230.651 106.229H219.816C219.48 106.23 219.158 106.363 218.921 106.601C218.684 106.838 218.55 107.16 218.55 107.496V118.348C218.55 118.514 218.583 118.679 218.647 118.832C218.711 118.986 218.804 119.125 218.921 119.242C219.039 119.359 219.178 119.452 219.332 119.515C219.485 119.579 219.65 119.611 219.816 119.61H230.651C230.986 119.611 231.307 119.478 231.544 119.241C231.781 119.005 231.915 118.684 231.916 118.348V107.496C231.915 107.161 231.782 106.839 231.545 106.602C231.307 106.364 230.986 106.23 230.651 106.229Z" fill="#F59E0B"/>
<path d="M230.651 124.722H219.816C219.48 124.722 219.158 124.856 218.921 125.093C218.684 125.331 218.55 125.653 218.55 125.989V136.836C218.55 137.003 218.582 137.168 218.646 137.321C218.709 137.475 218.803 137.615 218.92 137.733C219.038 137.85 219.177 137.944 219.331 138.007C219.485 138.071 219.649 138.103 219.816 138.103H230.651C230.986 138.103 231.308 137.969 231.545 137.732C231.783 137.494 231.916 137.172 231.916 136.836V125.989C231.915 125.653 231.782 125.332 231.545 125.094C231.307 124.857 230.986 124.723 230.651 124.722Z" fill="#F59E0B"/>
<path d="M230.651 143.215H219.816C219.55 143.215 219.292 143.299 219.077 143.455C218.862 143.61 218.701 143.83 218.618 144.082C218.573 144.211 218.55 144.346 218.55 144.482V155.329C218.55 155.495 218.582 155.66 218.646 155.814C218.709 155.968 218.802 156.108 218.92 156.225C219.038 156.343 219.177 156.436 219.331 156.5C219.485 156.564 219.649 156.596 219.816 156.596H230.651C230.986 156.596 231.308 156.462 231.545 156.225C231.783 155.987 231.916 155.665 231.916 155.329V144.482C231.915 144.146 231.782 143.824 231.545 143.587C231.307 143.35 230.986 143.216 230.651 143.215Z" fill="#F59E0B"/>
<path d="M230.651 161.708H219.816C219.649 161.707 219.485 161.74 219.331 161.803C219.177 161.867 219.038 161.96 218.92 162.078C218.803 162.196 218.709 162.335 218.646 162.489C218.582 162.643 218.55 162.808 218.55 162.974V173.822C218.55 173.988 218.582 174.153 218.646 174.307C218.709 174.461 218.803 174.6 218.92 174.718C219.038 174.836 219.177 174.929 219.331 174.993C219.485 175.056 219.649 175.089 219.816 175.089H230.651C230.986 175.088 231.308 174.955 231.545 174.717C231.783 174.48 231.916 174.158 231.916 173.822V162.974C231.916 162.638 231.783 162.316 231.545 162.079C231.308 161.841 230.986 161.708 230.651 161.708Z" fill="#E6E6E6"/>
<path d="M253.411 87.7367H242.576C242.241 87.7368 241.919 87.8703 241.681 88.1079C241.444 88.3454 241.311 88.6676 241.311 89.0035V99.8555C241.311 100.022 241.344 100.186 241.407 100.339C241.471 100.493 241.564 100.632 241.682 100.749C241.8 100.867 241.939 100.959 242.092 101.023C242.246 101.086 242.41 101.118 242.576 101.118H253.411C253.746 101.118 254.067 100.985 254.305 100.748C254.542 100.512 254.676 100.191 254.677 99.8555V89.0035C254.676 88.6678 254.542 88.3462 254.305 88.1088C254.068 87.8714 253.747 87.7376 253.411 87.7367Z" fill="#F59E0B"/>
<path d="M253.411 106.229H242.576C242.241 106.23 241.919 106.363 241.681 106.601C241.444 106.838 241.311 107.16 241.311 107.496V118.348C241.311 118.514 241.344 118.679 241.407 118.832C241.471 118.986 241.564 119.125 241.682 119.242C241.8 119.359 241.939 119.452 242.092 119.515C242.246 119.579 242.41 119.611 242.576 119.61H253.411C253.746 119.611 254.067 119.478 254.305 119.241C254.542 119.005 254.676 118.684 254.677 118.348V107.496C254.676 107.161 254.542 106.839 254.305 106.602C254.068 106.364 253.747 106.23 253.411 106.229Z" fill="#F59E0B"/>
<path d="M253.411 124.722H242.576C242.241 124.722 241.919 124.856 241.681 125.093C241.444 125.331 241.311 125.653 241.311 125.989V136.836C241.31 137.003 241.343 137.168 241.406 137.321C241.47 137.475 241.563 137.615 241.681 137.733C241.798 137.85 241.938 137.944 242.091 138.007C242.245 138.071 242.41 138.103 242.576 138.103H253.411C253.747 138.103 254.069 137.969 254.306 137.732C254.543 137.494 254.677 137.172 254.677 136.836V125.989C254.676 125.653 254.542 125.332 254.305 125.094C254.068 124.857 253.747 124.723 253.411 124.722Z" fill="#CEB995"/>
<path d="M253.411 143.215H242.576C242.241 143.215 241.919 143.348 241.681 143.586C241.444 143.824 241.311 144.146 241.311 144.482V155.329C241.31 155.495 241.343 155.66 241.406 155.814C241.47 155.968 241.563 156.108 241.681 156.225C241.798 156.343 241.938 156.436 242.091 156.5C242.245 156.564 242.41 156.596 242.576 156.596H253.411C253.747 156.596 254.069 156.462 254.306 156.225C254.543 155.987 254.677 155.665 254.677 155.329V144.482C254.676 144.146 254.542 143.824 254.305 143.587C254.068 143.35 253.747 143.216 253.411 143.215Z" fill="#F59E0B"/>
<path d="M253.411 161.708H242.576C242.41 161.707 242.245 161.74 242.091 161.803C241.938 161.867 241.798 161.96 241.681 162.078C241.563 162.196 241.47 162.335 241.406 162.489C241.343 162.643 241.31 162.808 241.311 162.974V173.822C241.31 173.988 241.343 174.153 241.406 174.307C241.47 174.461 241.563 174.6 241.681 174.718C241.798 174.836 241.938 174.929 242.091 174.993C242.245 175.056 242.41 175.089 242.576 175.089H253.411C253.747 175.088 254.069 174.955 254.306 174.717C254.543 174.48 254.677 174.158 254.677 173.822V162.974C254.677 162.638 254.543 162.316 254.306 162.079C254.069 161.841 253.747 161.708 253.411 161.708Z" fill="#F59E0B"/>
<path d="M276.172 87.7367H265.337C265.001 87.7368 264.679 87.8703 264.442 88.1079C264.205 88.3454 264.071 88.6676 264.071 89.0035V99.8555C264.071 100.022 264.104 100.186 264.168 100.339C264.232 100.493 264.325 100.632 264.442 100.749C264.56 100.867 264.699 100.959 264.853 101.023C265.006 101.086 265.171 101.118 265.337 101.118H276.172C276.507 101.118 276.828 100.985 277.065 100.748C277.302 100.512 277.436 100.191 277.437 99.8555V89.0035C277.436 88.6678 277.303 88.3462 277.065 88.1088C276.828 87.8714 276.507 87.7376 276.172 87.7367Z" fill="#F59E0B"/>
<path d="M276.172 106.229H265.337C265.001 106.23 264.679 106.363 264.442 106.601C264.205 106.838 264.071 107.16 264.071 107.496V118.348C264.071 118.514 264.104 118.679 264.168 118.832C264.232 118.986 264.325 119.125 264.442 119.242C264.56 119.359 264.699 119.452 264.853 119.515C265.006 119.579 265.171 119.611 265.337 119.61H276.172C276.507 119.611 276.828 119.478 277.065 119.241C277.302 119.005 277.436 118.684 277.437 118.348V107.496C277.436 107.161 277.303 106.839 277.066 106.602C276.828 106.364 276.507 106.23 276.172 106.229Z" fill="white"/>
<path d="M276.172 124.722H265.337C265.001 124.722 264.679 124.856 264.442 125.093C264.205 125.331 264.071 125.653 264.071 125.989V136.836C264.071 137.003 264.103 137.168 264.167 137.321C264.23 137.475 264.323 137.615 264.441 137.733C264.559 137.85 264.698 137.944 264.852 138.007C265.006 138.071 265.17 138.103 265.337 138.103H276.172C276.507 138.103 276.829 137.969 277.066 137.732C277.304 137.494 277.437 137.172 277.437 136.836V125.989C277.436 125.653 277.303 125.332 277.066 125.094C276.828 124.857 276.507 124.723 276.172 124.722Z" fill="white"/>
<path d="M276.172 143.215H265.337C265.001 143.215 264.679 143.348 264.442 143.586C264.205 143.824 264.071 144.146 264.071 144.482V155.329C264.071 155.495 264.103 155.66 264.167 155.814C264.23 155.968 264.323 156.108 264.441 156.225C264.559 156.343 264.698 156.436 264.852 156.5C265.006 156.564 265.17 156.596 265.337 156.596H276.172C276.507 156.596 276.829 156.462 277.066 156.225C277.304 155.987 277.437 155.665 277.437 155.329V144.482C277.436 144.146 277.303 143.824 277.066 143.587C276.828 143.35 276.507 143.216 276.172 143.215Z" fill="#CEB995"/>
<path d="M276.172 161.708H265.337C265.17 161.707 265.006 161.74 264.852 161.803C264.698 161.867 264.559 161.96 264.441 162.078C264.323 162.196 264.23 162.335 264.167 162.489C264.103 162.643 264.071 162.808 264.071 162.974V173.822C264.071 173.988 264.103 174.153 264.167 174.307C264.23 174.461 264.323 174.6 264.441 174.718C264.559 174.836 264.698 174.929 264.852 174.993C265.006 175.056 265.17 175.089 265.337 175.089H276.172C276.507 175.088 276.829 174.955 277.066 174.717C277.304 174.48 277.437 174.158 277.437 173.822V162.974C277.437 162.638 277.304 162.316 277.066 162.079C276.829 161.841 276.507 161.708 276.172 161.708Z" fill="#F59E0B"/>
<path d="M298.932 87.7367H288.092C287.757 87.7378 287.437 87.8718 287.2 88.1093C286.964 88.3468 286.831 88.6683 286.832 89.0036V99.8555C286.832 100.19 286.964 100.511 287.201 100.748C287.437 100.985 287.758 101.118 288.092 101.118H298.932C299.267 101.118 299.588 100.985 299.826 100.748C300.063 100.512 300.197 100.191 300.198 99.8555V89.0036C300.197 88.6678 300.063 88.3462 299.826 88.1088C299.589 87.8714 299.268 87.7376 298.932 87.7367Z" fill="white"/>
<path d="M298.932 106.229H288.092C287.757 106.231 287.437 106.365 287.2 106.602C286.964 106.84 286.831 107.161 286.832 107.496V118.348C286.832 118.683 286.964 119.004 287.201 119.241C287.437 119.477 287.758 119.61 288.092 119.61H298.932C299.267 119.611 299.588 119.478 299.826 119.241C300.063 119.005 300.197 118.684 300.198 118.348V107.496C300.197 107.161 300.063 106.839 299.826 106.602C299.589 106.364 299.268 106.23 298.932 106.229Z" fill="white"/>
<path d="M298.932 124.722H288.092C287.757 124.723 287.437 124.857 287.2 125.095C286.964 125.332 286.831 125.654 286.832 125.989V136.836C286.831 137.002 286.863 137.167 286.926 137.32C286.99 137.474 287.082 137.614 287.199 137.731C287.317 137.849 287.456 137.942 287.609 138.006C287.762 138.07 287.926 138.103 288.092 138.103H298.932C299.268 138.103 299.59 137.969 299.827 137.732C300.064 137.494 300.198 137.172 300.198 136.836V125.989C300.197 125.653 300.063 125.332 299.826 125.094C299.589 124.857 299.268 124.723 298.932 124.722Z" fill="white"/>
<path d="M298.932 143.215H288.092C287.757 143.216 287.437 143.35 287.2 143.587C286.964 143.825 286.831 144.147 286.832 144.482V155.329C286.831 155.495 286.863 155.66 286.926 155.813C286.99 155.967 287.082 156.106 287.199 156.224C287.317 156.342 287.456 156.435 287.609 156.499C287.762 156.563 287.926 156.596 288.092 156.596H298.932C299.268 156.596 299.59 156.462 299.827 156.225C300.064 155.987 300.198 155.665 300.198 155.329V144.482C300.197 144.146 300.063 143.824 299.826 143.587C299.589 143.35 299.268 143.216 298.932 143.215Z" fill="#F59E0B"/>
<path d="M298.932 161.708H288.092C287.926 161.708 287.762 161.741 287.609 161.804C287.456 161.868 287.317 161.962 287.199 162.079C287.082 162.197 286.99 162.337 286.926 162.49C286.863 162.644 286.831 162.808 286.832 162.974V173.822C286.831 173.988 286.863 174.152 286.926 174.306C286.99 174.459 287.082 174.599 287.199 174.717C287.317 174.834 287.456 174.928 287.609 174.992C287.762 175.055 287.926 175.088 288.092 175.089H298.932C299.268 175.088 299.59 174.955 299.827 174.717C300.064 174.48 300.198 174.158 300.198 173.822V162.974C300.198 162.638 300.064 162.316 299.827 162.079C299.59 161.841 299.268 161.708 298.932 161.708Z" fill="#CEB995"/>
<path d="M321.693 87.7367H310.853C310.518 87.7378 310.197 87.8718 309.961 88.1093C309.724 88.3468 309.592 88.6683 309.592 89.0036V99.8555C309.592 100.19 309.725 100.511 309.961 100.748C310.198 100.985 310.518 101.118 310.853 101.118H321.693C322.027 101.118 322.349 100.985 322.586 100.748C322.823 100.512 322.957 100.191 322.958 99.8555V89.0036C322.957 88.6678 322.823 88.3462 322.586 88.1088C322.349 87.8714 322.028 87.7376 321.693 87.7367Z" fill="white"/>
<path d="M321.693 106.229H310.853C310.518 106.231 310.197 106.365 309.961 106.602C309.724 106.84 309.592 107.161 309.592 107.496V118.348C309.592 118.683 309.725 119.004 309.961 119.241C310.198 119.477 310.518 119.61 310.853 119.61H321.693C322.027 119.61 322.349 119.478 322.586 119.241C322.823 119.005 322.957 118.684 322.958 118.348V107.496C322.957 107.161 322.823 106.839 322.586 106.602C322.349 106.364 322.028 106.23 321.693 106.229Z" fill="white"/>
<path d="M321.693 124.722H310.853C310.518 124.723 310.197 124.857 309.961 125.095C309.724 125.332 309.592 125.654 309.592 125.989V136.836C309.591 137.002 309.624 137.167 309.687 137.32C309.75 137.474 309.843 137.614 309.96 137.731C310.077 137.849 310.216 137.942 310.369 138.006C310.522 138.07 310.687 138.103 310.853 138.103H321.693C322.028 138.103 322.35 137.969 322.587 137.732C322.825 137.494 322.958 137.172 322.958 136.836V125.989C322.957 125.653 322.823 125.332 322.586 125.094C322.349 124.857 322.028 124.723 321.693 124.722Z" fill="#F59E0B"/>
<path d="M321.693 143.215H310.853C310.518 143.216 310.197 143.35 309.961 143.587C309.724 143.825 309.592 144.147 309.592 144.482V155.329C309.591 155.495 309.624 155.66 309.687 155.813C309.75 155.967 309.843 156.106 309.96 156.224C310.077 156.342 310.216 156.435 310.369 156.499C310.522 156.563 310.687 156.596 310.853 156.596H321.693C322.028 156.596 322.35 156.462 322.587 156.225C322.825 155.987 322.958 155.665 322.958 155.329V144.482C322.957 144.146 322.823 143.824 322.586 143.587C322.349 143.35 322.028 143.216 321.693 143.215Z" fill="#CEB995"/>
<path d="M321.693 161.708H310.853C310.687 161.708 310.522 161.741 310.369 161.804C310.216 161.868 310.077 161.962 309.96 162.079C309.843 162.197 309.75 162.337 309.687 162.49C309.624 162.644 309.591 162.808 309.592 162.974V173.822C309.591 173.988 309.624 174.152 309.687 174.306C309.75 174.459 309.843 174.599 309.96 174.717C310.077 174.834 310.216 174.928 310.369 174.992C310.522 175.055 310.687 175.088 310.853 175.089H321.693C322.028 175.088 322.35 174.955 322.587 174.717C322.825 174.48 322.958 174.158 322.958 173.822V162.974C322.958 162.638 322.825 162.316 322.587 162.079C322.35 161.841 322.028 161.708 321.693 161.708Z" fill="white"/>
<path d="M344.453 87.7367H333.613C333.278 87.7378 332.958 87.8718 332.721 88.1093C332.485 88.3468 332.352 88.6683 332.352 89.0036V99.8555C332.352 100.19 332.485 100.511 332.722 100.748C332.958 100.985 333.279 101.118 333.613 101.118H344.453C344.788 101.118 345.109 100.985 345.346 100.748C345.584 100.512 345.717 100.191 345.719 99.8555V89.0036C345.718 88.6678 345.584 88.3462 345.347 88.1088C345.11 87.8714 344.788 87.7376 344.453 87.7367Z" fill="#F59E0B"/>
<path d="M344.453 106.229H333.613C333.278 106.231 332.958 106.365 332.721 106.602C332.485 106.84 332.352 107.161 332.352 107.496V118.348C332.352 118.683 332.485 119.004 332.722 119.241C332.958 119.477 333.279 119.61 333.613 119.61H344.453C344.788 119.61 345.109 119.478 345.346 119.241C345.584 119.005 345.717 118.684 345.719 118.348V107.496C345.718 107.161 345.584 106.839 345.347 106.602C345.11 106.364 344.788 106.23 344.453 106.229Z" fill="#F59E0B"/>
<path d="M344.453 124.722H333.613C333.278 124.723 332.958 124.857 332.721 125.095C332.485 125.332 332.352 125.654 332.352 125.989V136.836C332.352 137.002 332.384 137.167 332.447 137.32C332.51 137.474 332.603 137.614 332.72 137.731C332.837 137.849 332.977 137.942 333.13 138.006C333.283 138.07 333.447 138.103 333.613 138.103H344.453C344.789 138.103 345.11 137.969 345.348 137.732C345.585 137.494 345.718 137.172 345.719 136.836V125.989C345.718 125.653 345.584 125.332 345.347 125.094C345.11 124.857 344.788 124.723 344.453 124.722Z" fill="#CEB995"/>
<path d="M344.453 143.215H333.613C333.278 143.216 332.958 143.35 332.721 143.587C332.485 143.825 332.352 144.147 332.352 144.482V155.329C332.352 155.495 332.384 155.66 332.447 155.813C332.51 155.967 332.603 156.106 332.72 156.224C332.837 156.342 332.977 156.435 333.13 156.499C333.283 156.563 333.447 156.596 333.613 156.596H344.453C344.789 156.596 345.11 156.462 345.348 156.225C345.585 155.987 345.718 155.665 345.719 155.329V144.482C345.718 144.146 345.584 143.824 345.347 143.587C345.11 143.35 344.788 143.216 344.453 143.215Z" fill="white"/>
<path d="M344.453 161.708H333.613C333.447 161.708 333.283 161.741 333.13 161.804C332.977 161.868 332.837 161.962 332.72 162.079C332.603 162.197 332.51 162.337 332.447 162.49C332.384 162.644 332.352 162.808 332.352 162.974V173.822C332.352 173.988 332.384 174.152 332.447 174.306C332.51 174.459 332.603 174.599 332.72 174.717C332.837 174.834 332.977 174.928 333.13 174.992C333.283 175.055 333.447 175.088 333.613 175.089H344.453C344.789 175.088 345.11 174.955 345.348 174.717C345.585 174.48 345.718 174.158 345.719 173.822V162.974C345.718 162.638 345.585 162.316 345.348 162.079C345.11 161.841 344.789 161.708 344.453 161.708Z" fill="#F59E0B"/>
<path d="M367.213 87.7367H356.373C356.039 87.7378 355.718 87.8718 355.482 88.1093C355.245 88.3468 355.113 88.6683 355.113 89.0036V99.8555C355.113 100.19 355.246 100.511 355.482 100.748C355.719 100.985 356.039 101.118 356.373 101.118H367.213C367.548 101.118 367.87 100.985 368.107 100.748C368.344 100.512 368.478 100.191 368.479 99.8555V89.0036C368.478 88.6678 368.344 88.3462 368.107 88.1088C367.87 87.8714 367.549 87.7376 367.213 87.7367Z" fill="#F59E0B"/>
<path d="M367.213 106.229H356.373C356.039 106.231 355.718 106.365 355.482 106.602C355.245 106.84 355.113 107.161 355.113 107.496V118.348C355.113 118.683 355.246 119.004 355.482 119.241C355.719 119.477 356.039 119.61 356.373 119.61H367.213C367.548 119.61 367.87 119.478 368.107 119.241C368.344 119.005 368.478 118.684 368.479 118.348V107.496C368.478 107.161 368.344 106.839 368.107 106.602C367.87 106.364 367.549 106.23 367.213 106.229Z" fill="#F59E0B"/>
<path d="M367.213 124.722H356.373C356.039 124.723 355.718 124.857 355.482 125.095C355.245 125.332 355.113 125.654 355.113 125.989V136.836C355.112 137.002 355.145 137.167 355.208 137.32C355.271 137.474 355.364 137.614 355.481 137.731C355.598 137.849 355.737 137.942 355.89 138.006C356.043 138.07 356.208 138.103 356.373 138.103H367.213C367.549 138.103 367.871 137.969 368.108 137.732C368.345 137.494 368.479 137.172 368.479 136.836V125.989C368.478 125.653 368.344 125.332 368.107 125.094C367.87 124.857 367.549 124.723 367.213 124.722Z" fill="#CEB995"/>
<path d="M367.213 143.215H356.373C356.039 143.216 355.718 143.35 355.482 143.587C355.245 143.825 355.113 144.147 355.113 144.482V155.329C355.112 155.495 355.145 155.66 355.208 155.813C355.271 155.967 355.364 156.106 355.481 156.224C355.598 156.342 355.737 156.435 355.89 156.499C356.043 156.563 356.208 156.596 356.373 156.596H367.213C367.549 156.596 367.871 156.462 368.108 156.225C368.345 155.987 368.479 155.665 368.479 155.329V144.482C368.478 144.146 368.344 143.824 368.107 143.587C367.87 143.35 367.549 143.216 367.213 143.215Z" fill="#F59E0B"/>
<path d="M367.213 161.708H356.373C356.208 161.708 356.043 161.741 355.89 161.804C355.737 161.868 355.598 161.962 355.481 162.079C355.364 162.197 355.271 162.337 355.208 162.49C355.145 162.644 355.112 162.808 355.113 162.974V173.822C355.112 173.988 355.145 174.152 355.208 174.306C355.271 174.459 355.364 174.599 355.481 174.717C355.598 174.834 355.737 174.928 355.89 174.992C356.043 175.055 356.208 175.088 356.373 175.089H367.213C367.549 175.088 367.871 174.955 368.108 174.717C368.345 174.48 368.479 174.158 368.479 173.822V162.974C368.479 162.638 368.345 162.316 368.108 162.079C367.871 161.841 367.549 161.708 367.213 161.708Z" fill="#F59E0B"/>
<path d="M389.974 87.7367H379.134C378.799 87.7378 378.478 87.8718 378.242 88.1093C378.006 88.3468 377.873 88.6683 377.873 89.0036V99.8555C377.873 100.19 378.006 100.511 378.243 100.748C378.479 100.985 378.8 101.118 379.134 101.118H389.974C390.309 101.118 390.63 100.985 390.867 100.748C391.104 100.512 391.238 100.191 391.239 99.8555V89.0036C391.238 88.6678 391.105 88.3462 390.868 88.1088C390.631 87.8714 390.309 87.7376 389.974 87.7367Z" fill="#CEB995"/>
<path d="M389.974 106.229H379.134C378.799 106.231 378.478 106.365 378.242 106.602C378.006 106.84 377.873 107.161 377.873 107.496V118.348C377.873 118.683 378.006 119.004 378.243 119.241C378.479 119.477 378.8 119.61 379.134 119.61H389.974C390.309 119.61 390.63 119.478 390.867 119.241C391.104 119.005 391.238 118.684 391.239 118.348V107.496C391.238 107.161 391.105 106.839 390.868 106.602C390.631 106.364 390.309 106.23 389.974 106.229Z" fill="#F59E0B"/>
<path d="M389.974 124.722H379.134C378.799 124.723 378.478 124.857 378.242 125.095C378.006 125.332 377.873 125.654 377.873 125.989V136.836C377.873 137.002 377.905 137.167 377.968 137.32C378.031 137.474 378.124 137.614 378.241 137.731C378.358 137.849 378.497 137.942 378.651 138.006C378.804 138.07 378.968 138.103 379.134 138.103H389.974C390.309 138.103 390.631 137.969 390.869 137.732C391.106 137.494 391.239 137.172 391.239 136.836V125.989C391.238 125.653 391.105 125.332 390.868 125.094C390.631 124.857 390.309 124.723 389.974 124.722Z" fill="#F59E0B"/>
<path d="M389.974 143.215H379.134C378.799 143.216 378.478 143.35 378.242 143.587C378.006 143.825 377.873 144.147 377.873 144.482V155.329C377.873 155.495 377.905 155.66 377.968 155.813C378.031 155.967 378.124 156.106 378.241 156.224C378.358 156.342 378.497 156.435 378.651 156.499C378.804 156.563 378.968 156.596 379.134 156.596H389.974C390.309 156.596 390.631 156.462 390.869 156.225C391.106 155.987 391.239 155.665 391.239 155.329V144.482C391.238 144.146 391.105 143.824 390.868 143.587C390.631 143.35 390.309 143.216 389.974 143.215Z" fill="#F59E0B"/>
<path d="M389.974 161.708H379.134C378.968 161.708 378.804 161.741 378.651 161.804C378.497 161.868 378.358 161.962 378.241 162.079C378.124 162.197 378.031 162.337 377.968 162.49C377.905 162.644 377.873 162.808 377.873 162.974V173.822C377.873 173.988 377.905 174.152 377.968 174.306C378.031 174.459 378.124 174.599 378.241 174.717C378.358 174.834 378.497 174.928 378.651 174.992C378.804 175.055 378.968 175.088 379.134 175.089H389.974C390.31 175.088 390.631 174.955 390.869 174.717C391.106 174.48 391.239 174.158 391.239 173.822V162.974C391.239 162.638 391.106 162.316 390.869 162.079C390.631 161.841 390.309 161.708 389.974 161.708Z" fill="#CEB995"/>
<path d="M412.734 87.7367H401.895C401.56 87.7378 401.239 87.8718 401.003 88.1093C400.766 88.3468 400.634 88.6683 400.634 89.0036V99.8555C400.634 100.19 400.767 100.511 401.003 100.748C401.24 100.985 401.56 101.118 401.895 101.118H412.734C413.069 101.118 413.391 100.985 413.628 100.748C413.865 100.512 413.999 100.191 414 99.8555V89.0036C413.999 88.6678 413.865 88.3462 413.628 88.1088C413.391 87.8714 413.07 87.7376 412.734 87.7367Z" fill="#CEB995"/>
<path d="M412.734 106.229H401.895C401.56 106.231 401.239 106.365 401.003 106.602C400.766 106.84 400.634 107.161 400.634 107.496V118.348C400.634 118.683 400.767 119.004 401.003 119.241C401.24 119.477 401.56 119.61 401.895 119.61H412.734C413.069 119.61 413.391 119.478 413.628 119.241C413.865 119.005 413.999 118.684 414 118.348V107.496C413.999 107.161 413.865 106.839 413.628 106.602C413.391 106.364 413.07 106.23 412.734 106.229Z" fill="#CEB995"/>
<path d="M412.734 124.722H401.895C401.56 124.723 401.239 124.857 401.003 125.095C400.766 125.332 400.634 125.654 400.634 125.989V136.836C400.633 137.002 400.666 137.167 400.729 137.32C400.792 137.474 400.885 137.614 401.002 137.731C401.119 137.849 401.258 137.942 401.411 138.006C401.564 138.07 401.729 138.103 401.895 138.103H412.734C413.07 138.103 413.392 137.969 413.629 137.732C413.866 137.494 414 137.172 414 136.836V125.989C413.999 125.653 413.865 125.332 413.628 125.094C413.391 124.857 413.07 124.723 412.734 124.722Z" fill="#F59E0B"/>
<path d="M412.734 143.215H401.895C401.56 143.216 401.239 143.35 401.003 143.587C400.766 143.825 400.634 144.147 400.634 144.482V155.329C400.633 155.495 400.666 155.66 400.729 155.813C400.792 155.967 400.885 156.106 401.002 156.224C401.119 156.342 401.258 156.435 401.411 156.499C401.564 156.563 401.729 156.596 401.895 156.596H412.734C413.07 156.596 413.392 156.462 413.629 156.225C413.866 155.987 414 155.665 414 155.329V144.482C413.999 144.146 413.865 143.824 413.628 143.587C413.391 143.35 413.07 143.216 412.734 143.215Z" fill="#CEB995"/>
<path d="M412.734 161.708H401.895C401.729 161.708 401.564 161.741 401.411 161.804C401.258 161.868 401.119 161.962 401.002 162.079C400.885 162.197 400.792 162.337 400.729 162.49C400.666 162.644 400.633 162.808 400.634 162.974V173.822C400.633 173.988 400.666 174.152 400.729 174.306C400.792 174.459 400.885 174.599 401.002 174.717C401.119 174.834 401.258 174.928 401.411 174.992C401.564 175.055 401.729 175.088 401.895 175.089H412.734C413.07 175.088 413.392 174.955 413.629 174.717C413.866 174.48 414 174.158 414 173.822V162.974C414 162.638 413.866 162.316 413.629 162.079C413.392 161.841 413.07 161.708 412.734 161.708Z" fill="#CEB995"/>
<path d="M163.594 321.637H163.293L163.551 321.603L163.594 321.637Z" fill="#2F2E41"/>
<path d="M137.66 119.413C156.027 119.413 170.916 104.507 170.916 86.1204C170.916 67.7334 156.027 52.8277 137.66 52.8277C119.294 52.8277 104.404 67.7334 104.404 86.1204C104.404 104.507 119.294 119.413 137.66 119.413Z" fill="#FFB6B6"/>
<path d="M166.783 61.7108C166.783 61.7108 175.481 45.0645 156.345 43.5511C156.345 43.5511 140.032 28.7364 123.404 40.8428C123.404 40.8428 114.334 40.8428 109.375 51.1176C109.375 51.1176 102.241 48.4093 100.674 55.6575C100.674 55.6575 95.4542 70.7906 100.674 84.4103C105.894 98.0301 107.627 99.5434 107.627 99.5434C107.627 99.5434 99.0503 70.9889 119.927 69.4755C140.805 67.9622 164.167 54.9009 165.906 71.5472C167.646 88.1935 170.264 92.295 170.264 92.295C170.264 92.295 186.789 68.5207 166.783 61.7108Z" fill="#2F2E41"/>
<path d="M223.685 168.169L223.578 168.734L222.376 175.089L214.067 219.042L213.576 221.63L212.544 227.102L211.132 234.567L208.002 251.111L207.107 255.852L206.771 257.631L206.654 258.255L205.724 263.162L205.442 264.643L203.174 281.469L201.193 296.132L207.822 302.769L203.87 306.725L201.275 321.602L201.28 321.637H95.3973C91.1139 318.859 86.8921 315.995 82.7321 313.046L83.6034 306.516C83.6034 306.516 86.6017 294.855 85.341 293.461C84.0852 292.068 81.3302 289.578 81.3302 289.578L84.8008 281.469L85.2826 280.344L84.4746 263.566L84.4552 263.162L84.1875 257.631L84.1534 256.919L84.0998 255.852L83.0728 234.567L83.0533 234.216L82.7419 227.765L82.4498 221.63L82.3232 219.042L81.0723 193.152L80.2253 175.571L79.4855 160.265L82.4595 159.256L114.269 148.434L127.445 131.286L154.869 131.49L168.293 131.593L190.693 152.39L195.79 154.827L195.829 154.846L199.484 156.596L208.752 161.025L218.55 165.713L223.578 168.115L223.685 168.169Z" fill="#737D86"/>
<path d="M130.989 271.69C128.979 272.469 126.823 272.798 124.673 272.653C122.523 272.508 120.431 271.893 118.543 270.851C116.656 269.809 115.02 268.365 113.751 266.622C112.481 264.878 111.609 262.877 111.196 260.76L59.3281 253.393L77.3587 232.975L123.849 243.101C127.448 242.641 131.091 243.519 134.087 245.568C137.082 247.618 139.223 250.696 140.103 254.22C140.983 257.744 140.542 261.469 138.862 264.689C137.182 267.909 134.381 270.4 130.989 271.69V271.69Z" fill="#FFB6B6"/>
<path d="M107.863 234.567C106.902 233.348 105.542 232.507 104.023 232.194L82.7418 227.765L80.5563 227.312C79.2862 227.046 78.0864 226.515 77.0353 225.754C75.9843 224.992 75.1058 224.017 74.4573 222.892C73.7846 221.711 73.3776 220.397 73.2647 219.042C73.1633 217.81 73.3106 216.571 73.6979 215.397L81.0722 193.152L85.8569 178.719C86.4368 176.978 86.7791 175.167 86.8743 173.334C87.1409 168.263 85.5736 163.265 82.4594 159.256C79.7216 155.733 75.9243 153.184 71.6285 151.988C67.3327 150.791 62.7662 151.009 58.6038 152.61C58.4821 152.654 58.3555 152.702 58.2339 152.751C55.2487 153.944 52.5818 155.816 50.4436 158.219C48.3055 160.622 46.7549 163.489 45.9142 166.595L40.7157 185.526L29.9926 224.554C28.9191 228.464 28.7023 232.56 29.3568 236.562C30.0114 240.564 31.5219 244.377 33.785 247.74C36.0481 251.103 39.0103 253.937 42.4689 256.048C45.9276 258.159 49.8009 259.497 53.8239 259.97L84.4746 263.566L98.6585 265.233C100.299 265.43 101.953 265.001 103.292 264.032C104.63 263.063 105.555 261.625 105.882 260.004C105.905 259.916 105.923 259.826 105.935 259.736L106.276 257.631L109.163 239.903L109.192 239.723C109.342 238.818 109.302 237.892 109.073 237.004C108.844 236.116 108.432 235.286 107.863 234.567Z" fill="#737D86"/>
<path d="M164.026 272.258C166.126 272.746 168.306 272.767 170.415 272.32C172.523 271.873 174.508 270.969 176.229 269.671C177.951 268.373 179.367 266.712 180.378 264.807C181.39 262.902 181.971 260.798 182.082 258.643L232.394 244.027L211.667 226.359L167.068 242.947C163.44 243 159.957 244.383 157.28 246.835C154.603 249.287 152.917 252.637 152.542 256.25C152.167 259.863 153.129 263.488 155.246 266.439C157.363 269.389 160.487 271.46 164.026 272.258V272.258Z" fill="#FFB6B6"/>
<path d="M257.373 211.333L233.445 156.201C231.487 151.675 227.992 147.989 223.578 145.797C222.214 145.125 220.781 144.602 219.305 144.238C219.076 144.18 218.847 144.126 218.618 144.082C215.487 143.398 212.24 143.458 209.136 144.258C206.299 144.987 203.648 146.307 201.355 148.132C199.062 149.956 197.179 152.244 195.829 154.846C195.814 154.868 195.801 154.891 195.79 154.915C194.281 157.836 193.479 161.071 193.448 164.359C193.417 167.647 194.157 170.897 195.609 173.846L195.906 174.44L212.816 208.439C213.394 209.601 213.719 210.873 213.771 212.17C213.823 213.468 213.6 214.761 213.118 215.966C212.635 217.172 211.903 218.261 210.97 219.163C210.038 220.065 208.925 220.76 207.705 221.201L206.518 221.63L185.159 229.353C183.556 229.926 182.238 231.099 181.482 232.625C180.725 234.151 180.59 235.911 181.104 237.535L181.158 237.706L187.145 256.885C187.174 256.973 187.203 257.061 187.237 257.148C187.29 257.314 187.355 257.475 187.432 257.631C188.068 259.059 189.193 260.214 190.604 260.887C192.014 261.559 193.619 261.706 195.128 261.3L206.654 258.255L209.005 257.631L238.77 249.761C242.686 248.725 246.333 246.854 249.46 244.276C252.587 241.698 255.12 238.474 256.887 234.824C258.654 231.175 259.612 227.187 259.696 223.132C259.78 219.078 258.988 215.053 257.373 211.333L257.373 211.333Z" fill="#737D86"/>
<path d="M21.8541 257.631C28.7516 266.053 36.1903 274.016 44.123 281.469H264.12C266.239 281.472 268.271 282.317 269.769 283.818C271.268 285.319 272.11 287.353 272.112 289.475L272.429 345.285C285.962 339.06 298.637 331.111 310.137 321.637C313.33 319.01 316.424 316.27 319.419 313.416C321.381 311.555 323.296 309.648 325.163 307.695C339.164 293.094 350.501 276.149 358.661 257.631H21.8541Z" fill="#3F3D56"/>
<path d="M325.163 307.695C323.299 309.649 321.384 311.556 319.419 313.416H272.589V307.695H325.163Z" fill="#F59E0B"/>
<path d="M223.247 124.722C223.016 124.295 222.674 123.938 222.256 123.689C221.839 123.44 221.362 123.309 220.877 123.309H61.3004C60.5849 123.311 59.8994 123.597 59.3939 124.103C58.8885 124.61 58.6043 125.297 58.6038 126.013V221.63H223.578V126.013C223.581 125.562 223.467 125.117 223.247 124.722Z" fill="#3F3D56"/>
<path d="M58.4594 219.041V230.84C58.4593 231.329 58.5556 231.814 58.7426 232.266C58.9295 232.718 59.2036 233.128 59.5491 233.474C59.8946 233.82 60.3048 234.094 60.7562 234.281C61.2076 234.469 61.6914 234.565 62.18 234.565H123.071V257.851H122.262C122.199 257.851 122.136 257.864 122.077 257.888C122.018 257.912 121.965 257.948 121.92 257.993C121.875 258.038 121.84 258.091 121.815 258.15C121.791 258.208 121.779 258.271 121.779 258.335V259.954C121.779 260.018 121.791 260.081 121.815 260.14C121.84 260.198 121.875 260.252 121.92 260.297C121.965 260.342 122.018 260.377 122.077 260.402C122.136 260.426 122.199 260.438 122.262 260.438H160.062C160.126 260.438 160.189 260.426 160.247 260.402C160.306 260.377 160.359 260.342 160.404 260.297C160.449 260.252 160.485 260.198 160.509 260.14C160.533 260.081 160.546 260.018 160.546 259.954V258.335C160.546 258.271 160.533 258.208 160.509 258.15C160.485 258.091 160.449 258.038 160.404 257.993C160.359 257.948 160.306 257.912 160.247 257.888C160.189 257.864 160.126 257.851 160.062 257.851H159.253V234.565H220.144C220.633 234.565 221.117 234.469 221.568 234.281C222.02 234.094 222.43 233.82 222.775 233.474C223.121 233.128 223.395 232.718 223.582 232.266C223.769 231.814 223.865 231.329 223.865 230.84V219.041H58.4594Z" fill="#1D2638"/>
<path d="M139.163 185.176C147.579 185.176 154.402 178.346 154.402 169.92C154.402 161.495 147.579 154.665 139.163 154.665C130.748 154.665 123.925 161.495 123.925 169.92C123.925 178.346 130.748 185.176 139.163 185.176Z" fill="#F59E0B"/>
<path d="M177.989 84.3012H175.555C175.555 65.8816 157.346 53.8114 138.976 53.8017C136.304 53.7938 133.638 54.0534 131.018 54.5764C128.068 55.1661 125.006 55.8726 121.998 56.7936C110.136 60.4337 99.1355 67.4702 99.1355 84.3012C99.133 87.5699 99.5485 90.8255 100.372 93.9886L98.016 94.6026C97.1422 91.2387 96.7006 87.777 96.7018 84.3012C96.7018 69.5948 102.733 59.4932 113.149 53.4703C118.625 50.3029 125.308 48.2611 132.965 47.2671C136.151 46.8427 139.372 46.7448 142.578 46.9747C163.703 48.495 177.989 64.7121 177.989 84.3012Z" fill="#F59E0B"/>
<path d="M182.044 85.651L181.085 78.556C180.848 76.7643 179.986 75.1141 178.651 73.8975C177.794 73.1045 176.768 72.5169 175.651 72.1792C174.533 71.8415 173.354 71.7626 172.202 71.9484L170.678 72.1579C170.261 72.2128 169.86 72.3501 169.496 72.5617C169.133 72.7734 168.815 73.0552 168.561 73.3908C168.305 73.7252 168.118 74.1071 168.01 74.5144C167.902 74.9218 167.876 75.3464 167.933 75.7639L170.148 92.1076C170.239 92.7738 170.537 93.3943 171 93.8814C171.463 94.3685 172.067 94.6975 172.727 94.8218C172.923 94.8611 173.122 94.8807 173.321 94.8803C173.465 94.8803 173.608 94.8705 173.75 94.8511L175.453 94.622C176.492 94.4841 177.491 94.1349 178.39 93.5961C179.289 93.0573 180.069 92.3402 180.681 91.4888C180.812 91.3036 180.939 91.1136 181.056 90.9186C181.968 89.3242 182.316 87.4682 182.044 85.651Z" fill="#F59E0B"/>
<path d="M169.695 72.4552C169.248 72.6725 168.859 72.9932 168.561 73.3908C168.305 73.7252 168.118 74.1071 168.01 74.5144C167.902 74.9218 167.876 75.3464 167.933 75.7639L170.148 92.1076C170.239 92.7738 170.537 93.3943 171 93.8814C171.463 94.3685 172.067 94.6975 172.727 94.8219L169.695 72.4552Z" fill="white"/>
<path d="M182.044 85.651L181.085 78.5561C180.848 76.7643 179.986 75.1141 178.651 73.8976L180.856 90.1585C180.889 90.4195 180.956 90.6751 181.056 90.9186C181.968 89.3242 182.316 87.4682 182.044 85.651Z" fill="#4C496B"/>
<path d="M174.465 90.763C175.131 90.6726 175.466 89.086 175.213 87.2192C174.96 85.3524 174.215 83.9124 173.549 84.0029C172.883 84.0933 172.548 85.6799 172.801 87.5467C173.054 89.4135 173.799 90.8535 174.465 90.763Z" fill="#3F3D56"/>
<path d="M173.005 81.9918C173.671 81.9014 174.006 80.3147 173.753 78.448C173.5 76.5812 172.755 75.1412 172.089 75.2317C171.423 75.3221 171.088 76.9087 171.341 78.7755C171.594 80.6423 172.339 82.0822 173.005 81.9918Z" fill="#3F3D56"/>
<path d="M182.253 85.4028C182.919 85.3124 183.254 83.7258 183.001 81.859C182.748 79.9922 182.003 78.5522 181.337 78.6427C180.671 78.7331 180.336 80.3198 180.589 82.1865C180.842 84.0533 181.587 85.4933 182.253 85.4028Z" fill="#4C496B"/>
<path d="M138.976 53.8016C136.304 53.7938 133.638 54.0534 131.018 54.5764C128.068 55.1661 125.006 55.8726 121.998 56.7936C117.301 56.5646 113.845 55.3464 113.149 53.4703C118.625 50.3029 125.308 48.2611 132.965 47.2671C136.151 46.8427 139.372 46.7448 142.578 46.9747C142.917 47.1739 143.211 47.4427 143.439 47.7635C143.667 48.0844 143.825 48.4499 143.902 48.8361C144.131 50.5319 142.198 52.3349 138.976 53.8016Z" fill="#4C496B"/>
<path d="M107.902 101.21L104.154 85.6121C104.02 85.0493 103.724 84.5386 103.301 84.1442C102.878 83.7497 102.349 83.489 101.779 83.3949C101.618 83.3698 101.455 83.3568 101.292 83.3559C101.062 83.3567 100.834 83.3845 100.61 83.4387L99.1599 83.7896C97.2923 84.2418 95.6802 85.4172 94.6773 87.058C93.6744 88.6987 93.3627 90.6708 93.8105 92.5413L95.4898 99.5389C95.8732 101.186 96.7864 102.662 98.0891 103.739C98.3002 103.91 98.5212 104.068 98.751 104.212C99.567 104.724 100.477 105.067 101.428 105.221C102.378 105.375 103.35 105.337 104.285 105.109L105.731 104.758C106.113 104.668 106.473 104.501 106.787 104.266C107.255 103.924 107.61 103.452 107.809 102.908C108.007 102.364 108.04 101.773 107.902 101.21Z" fill="#F59E0B"/>
<path d="M100.045 98.308C100.698 98.1506 100.871 96.5382 100.431 94.7066C99.9903 92.875 99.1037 91.5179 98.4503 91.6753C97.7969 91.8327 97.6241 93.4451 98.0644 95.2767C98.5047 97.1082 99.3913 98.4654 100.045 98.308Z" fill="#3F3D56"/>
<path d="M95.1771 99.7699C95.8305 99.6125 96.0033 98.0001 95.563 96.1685C95.1228 94.3369 94.2362 92.9797 93.5828 93.1372C92.9294 93.2946 92.7566 94.907 93.1968 96.7386C93.6371 98.5701 94.5237 99.9273 95.1771 99.7699Z" fill="#4C496B"/>
<path d="M108.14 101.152L104.392 85.5535C104.246 84.9447 103.924 84.3924 103.466 83.966C103.008 83.5395 102.435 83.2578 101.818 83.1561L106.933 104.46C107.438 104.09 107.823 103.578 108.038 102.989C108.252 102.4 108.288 101.761 108.14 101.152Z" fill="white"/>
<path d="M94.6575 89.4519C94.554 89.0181 94.3599 88.6112 94.088 88.258C93.5611 89.624 93.4643 91.1187 93.8105 92.5413L95.4898 99.5388C95.8732 101.186 96.7864 102.662 98.0891 103.739L94.6575 89.4519Z" fill="#4C496B"/>
</g>
<defs>
<clipPath id="clip0_302_251">
<rect width="414" height="361" fill="white"/>
</clipPath>
</defs>
</svg>
