<svg width="70" height="71" viewBox="0 0 70 71" fill="none" xmlns="http://www.w3.org/2000/svg">
<path d="M1.26945 68V59.684H6.00945V60.392H2.08545V63.32H5.56545V64.028H2.08545V68H1.26945ZM9.02783 68.108C8.76383 68.1 8.53183 68.064 8.33183 68C8.13983 67.944 7.97583 67.856 7.83983 67.736C7.71183 67.608 7.61183 67.448 7.53983 67.256C7.47583 67.056 7.44383 66.808 7.44383 66.512V58.832L8.22383 58.688V66.488C8.22383 66.68 8.23983 66.836 8.27183 66.956C8.31183 67.068 8.36783 67.16 8.43983 67.232C8.51183 67.296 8.60383 67.344 8.71583 67.376C8.83583 67.408 8.97583 67.436 9.13583 67.46L9.02783 68.108ZM12.4704 67.436C12.7744 67.436 13.0384 67.428 13.2624 67.412C13.4944 67.388 13.6904 67.36 13.8504 67.328V65.144C13.7624 65.104 13.6224 65.064 13.4304 65.024C13.2384 64.976 12.9744 64.952 12.6384 64.952C12.4464 64.952 12.2464 64.968 12.0384 65C11.8304 65.024 11.6384 65.084 11.4624 65.18C11.2864 65.268 11.1424 65.392 11.0304 65.552C10.9184 65.712 10.8624 65.924 10.8624 66.188C10.8624 66.42 10.8984 66.616 10.9704 66.776C11.0504 66.936 11.1584 67.064 11.2944 67.16C11.4384 67.256 11.6064 67.328 11.7984 67.376C11.9984 67.416 12.2224 67.436 12.4704 67.436ZM12.3984 61.652C12.8064 61.652 13.1504 61.712 13.4304 61.832C13.7184 61.944 13.9504 62.104 14.1264 62.312C14.3024 62.512 14.4304 62.752 14.5104 63.032C14.5904 63.312 14.6304 63.616 14.6304 63.944V67.856C14.5504 67.88 14.4344 67.908 14.2824 67.94C14.1304 67.964 13.9544 67.992 13.7544 68.024C13.5544 68.056 13.3304 68.08 13.0824 68.096C12.8424 68.12 12.5944 68.132 12.3384 68.132C12.0104 68.132 11.7064 68.096 11.4264 68.024C11.1544 67.952 10.9144 67.84 10.7064 67.688C10.5064 67.528 10.3464 67.328 10.2264 67.088C10.1144 66.84 10.0584 66.54 10.0584 66.188C10.0584 65.852 10.1224 65.564 10.2504 65.324C10.3784 65.084 10.5584 64.888 10.7904 64.736C11.0224 64.576 11.2984 64.46 11.6184 64.388C11.9384 64.316 12.2864 64.28 12.6624 64.28C12.7744 64.28 12.8904 64.288 13.0104 64.304C13.1384 64.312 13.2584 64.328 13.3704 64.352C13.4904 64.368 13.5904 64.388 13.6704 64.412C13.7584 64.428 13.8184 64.444 13.8504 64.46V64.076C13.8504 63.86 13.8344 63.652 13.8024 63.452C13.7704 63.244 13.6984 63.06 13.5864 62.9C13.4824 62.732 13.3304 62.6 13.1304 62.504C12.9384 62.4 12.6824 62.348 12.3624 62.348C11.9064 62.348 11.5664 62.38 11.3424 62.444C11.1184 62.508 10.9544 62.56 10.8504 62.6L10.7424 61.916C10.8784 61.852 11.0864 61.792 11.3664 61.736C11.6544 61.68 11.9984 61.652 12.3984 61.652ZM14.2584 59.336L12.2064 61.004L11.8104 60.548L13.7064 58.724L14.2584 59.336ZM18.4919 67.16C18.6599 66.816 18.8319 66.424 19.0079 65.984C19.1839 65.536 19.3519 65.076 19.5119 64.604C19.6799 64.124 19.8319 63.644 19.9679 63.164C20.1119 62.676 20.2319 62.22 20.3279 61.796H21.1079C20.9639 62.364 20.8039 62.924 20.6279 63.476C20.4519 64.028 20.2639 64.568 20.0639 65.096C19.8719 65.624 19.6679 66.132 19.4519 66.62C19.2439 67.108 19.0399 67.568 18.8399 68H18.0959C17.8879 67.568 17.6799 67.108 17.4719 66.62C17.2639 66.132 17.0599 65.624 16.8599 65.096C16.6679 64.568 16.4839 64.028 16.3079 63.476C16.1319 62.924 15.9719 62.364 15.8279 61.796H16.6559C16.7519 62.22 16.8679 62.676 17.0039 63.164C17.1479 63.644 17.2999 64.124 17.4599 64.604C17.6279 65.076 17.7999 65.536 17.9759 65.984C18.1519 66.424 18.3239 66.816 18.4919 67.16ZM23.1655 68H22.3855V61.796H23.1655V68ZM23.3455 59.924C23.3455 60.108 23.2895 60.256 23.1775 60.368C23.0655 60.472 22.9295 60.524 22.7695 60.524C22.6095 60.524 22.4735 60.472 22.3615 60.368C22.2495 60.256 22.1935 60.108 22.1935 59.924C22.1935 59.74 22.2495 59.596 22.3615 59.492C22.4735 59.38 22.6095 59.324 22.7695 59.324C22.9295 59.324 23.0655 59.38 23.1775 59.492C23.2895 59.596 23.3455 59.74 23.3455 59.924ZM30.5252 64.904C30.5252 65.392 30.4532 65.836 30.3092 66.236C30.1732 66.636 29.9772 66.976 29.7212 67.256C29.4732 67.536 29.1772 67.756 28.8332 67.916C28.4892 68.068 28.1092 68.144 27.6932 68.144C27.2772 68.144 26.8972 68.068 26.5532 67.916C26.2092 67.756 25.9092 67.536 25.6532 67.256C25.4052 66.976 25.2092 66.636 25.0652 66.236C24.9292 65.836 24.8612 65.392 24.8612 64.904C24.8612 64.416 24.9292 63.972 25.0652 63.572C25.2092 63.172 25.4052 62.832 25.6532 62.552C25.9092 62.264 26.2092 62.044 26.5532 61.892C26.8972 61.732 27.2772 61.652 27.6932 61.652C28.1092 61.652 28.4892 61.732 28.8332 61.892C29.1772 62.044 29.4732 62.264 29.7212 62.552C29.9772 62.832 30.1732 63.172 30.3092 63.572C30.4532 63.972 30.5252 64.416 30.5252 64.904ZM29.6972 64.904C29.6972 64.128 29.5172 63.512 29.1572 63.056C28.7972 62.592 28.3092 62.36 27.6932 62.36C27.0772 62.36 26.5892 62.592 26.2292 63.056C25.8692 63.512 25.6892 64.128 25.6892 64.904C25.6892 65.68 25.8692 66.296 26.2292 66.752C26.5892 67.208 27.0772 67.436 27.6932 67.436C28.3092 67.436 28.7972 67.208 29.1572 66.752C29.5172 66.296 29.6972 65.68 29.6972 64.904ZM36.784 67.472C37.432 67.472 37.936 67.356 38.296 67.124C38.656 66.884 38.836 66.5 38.836 65.972C38.836 65.668 38.776 65.416 38.656 65.216C38.544 65.008 38.392 64.836 38.2 64.7C38.008 64.556 37.788 64.436 37.54 64.34C37.292 64.236 37.032 64.128 36.76 64.016C36.416 63.88 36.108 63.74 35.836 63.596C35.564 63.452 35.332 63.292 35.14 63.116C34.948 62.932 34.8 62.724 34.696 62.492C34.6 62.26 34.552 61.988 34.552 61.676C34.552 60.964 34.788 60.424 35.26 60.056C35.732 59.688 36.388 59.504 37.228 59.504C37.452 59.504 37.672 59.52 37.888 59.552C38.104 59.584 38.304 59.628 38.488 59.684C38.68 59.732 38.852 59.788 39.004 59.852C39.164 59.916 39.296 59.984 39.4 60.056L39.112 60.74C38.88 60.58 38.596 60.452 38.26 60.356C37.932 60.26 37.576 60.212 37.192 60.212C36.928 60.212 36.684 60.24 36.46 60.296C36.244 60.344 36.056 60.428 35.896 60.548C35.736 60.66 35.608 60.804 35.512 60.98C35.424 61.156 35.38 61.368 35.38 61.616C35.38 61.872 35.428 62.088 35.524 62.264C35.62 62.44 35.752 62.592 35.92 62.72C36.096 62.848 36.3 62.964 36.532 63.068C36.764 63.172 37.016 63.28 37.288 63.392C37.616 63.528 37.924 63.664 38.212 63.8C38.508 63.936 38.764 64.096 38.98 64.28C39.196 64.464 39.368 64.688 39.496 64.952C39.624 65.216 39.688 65.54 39.688 65.924C39.688 66.676 39.424 67.24 38.896 67.616C38.376 67.992 37.668 68.18 36.772 68.18C36.452 68.18 36.16 68.16 35.896 68.12C35.632 68.08 35.396 68.032 35.188 67.976C34.98 67.912 34.804 67.848 34.66 67.784C34.516 67.72 34.404 67.664 34.324 67.616L34.588 66.908C34.668 66.956 34.776 67.012 34.912 67.076C35.048 67.14 35.208 67.204 35.392 67.268C35.576 67.324 35.784 67.372 36.016 67.412C36.248 67.452 36.504 67.472 36.784 67.472ZM43.1032 67.436C43.4072 67.436 43.6712 67.428 43.8952 67.412C44.1272 67.388 44.3232 67.36 44.4832 67.328V65.144C44.3952 65.104 44.2552 65.064 44.0632 65.024C43.8712 64.976 43.6072 64.952 43.2712 64.952C43.0792 64.952 42.8792 64.968 42.6712 65C42.4632 65.024 42.2712 65.084 42.0952 65.18C41.9192 65.268 41.7752 65.392 41.6632 65.552C41.5512 65.712 41.4952 65.924 41.4952 66.188C41.4952 66.42 41.5312 66.616 41.6032 66.776C41.6832 66.936 41.7912 67.064 41.9272 67.16C42.0712 67.256 42.2392 67.328 42.4312 67.376C42.6312 67.416 42.8552 67.436 43.1032 67.436ZM43.0312 61.652C43.4392 61.652 43.7832 61.712 44.0632 61.832C44.3512 61.944 44.5832 62.104 44.7592 62.312C44.9352 62.512 45.0632 62.752 45.1432 63.032C45.2232 63.312 45.2632 63.616 45.2632 63.944V67.856C45.1832 67.88 45.0672 67.908 44.9152 67.94C44.7632 67.964 44.5872 67.992 44.3872 68.024C44.1872 68.056 43.9632 68.08 43.7152 68.096C43.4752 68.12 43.2272 68.132 42.9712 68.132C42.6432 68.132 42.3392 68.096 42.0592 68.024C41.7872 67.952 41.5472 67.84 41.3392 67.688C41.1392 67.528 40.9792 67.328 40.8592 67.088C40.7472 66.84 40.6912 66.54 40.6912 66.188C40.6912 65.852 40.7552 65.564 40.8832 65.324C41.0112 65.084 41.1912 64.888 41.4232 64.736C41.6552 64.576 41.9312 64.46 42.2512 64.388C42.5712 64.316 42.9192 64.28 43.2952 64.28C43.4072 64.28 43.5232 64.288 43.6432 64.304C43.7712 64.312 43.8912 64.328 44.0032 64.352C44.1232 64.368 44.2232 64.388 44.3032 64.412C44.3912 64.428 44.4512 64.444 44.4832 64.46V64.076C44.4832 63.86 44.4672 63.652 44.4352 63.452C44.4032 63.244 44.3312 63.06 44.2192 62.9C44.1152 62.732 43.9632 62.6 43.7632 62.504C43.5712 62.4 43.3152 62.348 42.9952 62.348C42.5392 62.348 42.1992 62.38 41.9752 62.444C41.7512 62.508 41.5872 62.56 41.4832 62.6L41.3752 61.916C41.5112 61.852 41.7192 61.792 41.9992 61.736C42.2872 61.68 42.6312 61.652 43.0312 61.652ZM47.2527 62.012C47.4847 61.948 47.7967 61.876 48.1887 61.796C48.5807 61.716 49.0607 61.676 49.6287 61.676C50.1007 61.676 50.4927 61.744 50.8047 61.88C51.1247 62.016 51.3767 62.212 51.5607 62.468C51.7527 62.716 51.8887 63.016 51.9687 63.368C52.0487 63.72 52.0887 64.108 52.0887 64.532V68H51.3087V64.784C51.3087 64.344 51.2767 63.972 51.2127 63.668C51.1567 63.364 51.0567 63.116 50.9127 62.924C50.7767 62.732 50.5927 62.596 50.3607 62.516C50.1367 62.428 49.8527 62.384 49.5087 62.384C49.1407 62.384 48.8207 62.404 48.5487 62.444C48.2847 62.484 48.1127 62.52 48.0327 62.552V68H47.2527V62.012ZM54.8167 61.796H57.2887V62.456H54.8167V65.756C54.8167 66.108 54.8447 66.396 54.9007 66.62C54.9647 66.836 55.0527 67.004 55.1647 67.124C55.2767 67.244 55.4127 67.324 55.5727 67.364C55.7327 67.404 55.9087 67.424 56.1007 67.424C56.4287 67.424 56.6927 67.388 56.8927 67.316C57.0927 67.236 57.2487 67.164 57.3607 67.1L57.5527 67.748C57.4407 67.82 57.2447 67.904 56.9647 68C56.6847 68.088 56.3807 68.132 56.0527 68.132C55.6687 68.132 55.3447 68.084 55.0807 67.988C54.8247 67.884 54.6167 67.732 54.4567 67.532C54.3047 67.324 54.1967 67.068 54.1327 66.764C54.0687 66.46 54.0367 66.1 54.0367 65.684V59.972L54.8167 59.828V61.796ZM64.0174 64.904C64.0174 65.392 63.9454 65.836 63.8014 66.236C63.6654 66.636 63.4694 66.976 63.2134 67.256C62.9654 67.536 62.6694 67.756 62.3254 67.916C61.9814 68.068 61.6014 68.144 61.1854 68.144C60.7694 68.144 60.3894 68.068 60.0454 67.916C59.7014 67.756 59.4014 67.536 59.1454 67.256C58.8974 66.976 58.7014 66.636 58.5574 66.236C58.4214 65.836 58.3534 65.392 58.3534 64.904C58.3534 64.416 58.4214 63.972 58.5574 63.572C58.7014 63.172 58.8974 62.832 59.1454 62.552C59.4014 62.264 59.7014 62.044 60.0454 61.892C60.3894 61.732 60.7694 61.652 61.1854 61.652C61.6014 61.652 61.9814 61.732 62.3254 61.892C62.6694 62.044 62.9654 62.264 63.2134 62.552C63.4694 62.832 63.6654 63.172 63.8014 63.572C63.9454 63.972 64.0174 64.416 64.0174 64.904ZM63.1894 64.904C63.1894 64.128 63.0094 63.512 62.6494 63.056C62.2894 62.592 61.8014 62.36 61.1854 62.36C60.5694 62.36 60.0814 62.592 59.7214 63.056C59.3614 63.512 59.1814 64.128 59.1814 64.904C59.1814 65.68 59.3614 66.296 59.7214 66.752C60.0814 67.208 60.5694 67.436 61.1854 67.436C61.8014 67.436 62.2894 67.208 62.6494 66.752C63.0094 66.296 63.1894 65.68 63.1894 64.904ZM66.9817 67.448C67.4297 67.448 67.7977 67.376 68.0857 67.232C68.3817 67.08 68.5297 66.828 68.5297 66.476C68.5297 66.308 68.5017 66.164 68.4457 66.044C68.3977 65.924 68.3137 65.816 68.1937 65.72C68.0737 65.624 67.9137 65.532 67.7137 65.444C67.5217 65.356 67.2817 65.252 66.9937 65.132C66.7617 65.036 66.5417 64.94 66.3337 64.844C66.1257 64.74 65.9417 64.624 65.7817 64.496C65.6217 64.36 65.4937 64.2 65.3977 64.016C65.3017 63.832 65.2537 63.608 65.2537 63.344C65.2537 62.84 65.4417 62.432 65.8177 62.12C66.2017 61.808 66.7257 61.652 67.3897 61.652C67.8137 61.652 68.1617 61.688 68.4337 61.76C68.7137 61.832 68.9097 61.896 69.0217 61.952L68.8417 62.648C68.7457 62.6 68.5817 62.536 68.3497 62.456C68.1257 62.376 67.7937 62.336 67.3537 62.336C67.1777 62.336 67.0097 62.356 66.8497 62.396C66.6977 62.428 66.5617 62.484 66.4417 62.564C66.3217 62.636 66.2257 62.732 66.1537 62.852C66.0817 62.964 66.0457 63.104 66.0457 63.272C66.0457 63.44 66.0777 63.584 66.1417 63.704C66.2057 63.824 66.2977 63.932 66.4177 64.028C66.5457 64.116 66.6977 64.2 66.8737 64.28C67.0577 64.36 67.2657 64.448 67.4977 64.544C67.7377 64.64 67.9657 64.74 68.1817 64.844C68.4057 64.94 68.6017 65.06 68.7697 65.204C68.9377 65.34 69.0737 65.508 69.1777 65.708C69.2817 65.9 69.3337 66.144 69.3337 66.44C69.3337 67 69.1217 67.424 68.6977 67.712C68.2817 68 67.7097 68.144 66.9817 68.144C66.4377 68.144 66.0217 68.096 65.7337 68C65.4457 67.912 65.2537 67.844 65.1577 67.796L65.3617 67.088C65.3857 67.104 65.4377 67.132 65.5177 67.172C65.5977 67.204 65.7057 67.244 65.8417 67.292C65.9777 67.332 66.1377 67.368 66.3217 67.4C66.5137 67.432 66.7337 67.448 66.9817 67.448Z" fill="white"/>
<path d="M5.312 45.376V1.024H33.344V7.872H13.376V19.2H31.104V26.048H13.376V45.376H5.312Z" fill="#F59E0B"/>
<path d="M51.314 39.36C54.2153 39.36 56.3273 38.8693 57.65 37.888C58.9727 36.9067 59.634 35.52 59.634 33.728C59.634 32.6613 59.3993 31.744 58.93 30.976C58.5033 30.208 57.8633 29.5253 57.01 28.928C56.1993 28.288 55.1967 27.712 54.002 27.2C52.8073 26.6453 51.442 26.112 49.906 25.6C48.37 25.0453 46.8767 24.448 45.426 23.808C44.018 23.1253 42.7593 22.2933 41.65 21.312C40.5833 20.3307 39.7087 19.1573 39.026 17.792C38.386 16.4267 38.066 14.784 38.066 12.864C38.066 8.85333 39.4527 5.71733 42.226 3.456C44.9993 1.152 48.7753 0 53.554 0C56.3273 0 58.7807 0.320001 60.914 0.960003C63.09 1.55734 64.7967 2.21867 66.034 2.944L63.538 9.472C62.0873 8.66133 60.4873 8.04267 58.738 7.616C57.0313 7.18933 55.2607 6.976 53.426 6.976C51.25 6.976 49.5433 7.424 48.306 8.32C47.1113 9.216 46.514 10.4747 46.514 12.096C46.514 13.0773 46.706 13.9307 47.09 14.656C47.5167 15.3387 48.0927 15.9573 48.818 16.512C49.586 17.0667 50.4607 17.5787 51.442 18.048C52.466 18.5173 53.5753 18.9653 54.77 19.392C56.8607 20.16 58.7167 20.9493 60.338 21.76C62.002 22.528 63.3887 23.4667 64.498 24.576C65.65 25.6427 66.5247 26.9227 67.122 28.416C67.7193 29.8667 68.018 31.6373 68.018 33.728C68.018 37.7387 66.5887 40.8533 63.73 43.072C60.914 45.248 56.7753 46.336 51.314 46.336C49.4793 46.336 47.794 46.208 46.258 45.952C44.7647 45.7387 43.4207 45.4613 42.226 45.12C41.074 44.7787 40.0713 44.4373 39.218 44.096C38.3647 43.712 37.682 43.3707 37.17 43.072L39.538 36.48C40.69 37.12 42.2473 37.76 44.21 38.4C46.1727 39.04 48.5407 39.36 51.314 39.36Z" fill="#F59E0B"/>
<path d="M0 53.888H69.81V55.168H0V53.888Z" fill="#F59E0B"/>
</svg>
